<svg xmlns="http://www.w3.org/2000/svg" width="1112" height="784" viewBox="0 0 1112 784">
<defs>
<path id="g0" d="M5.97 18.1L5.97 15.79L6.03 13.91L6.01 13.91Q5.78 14.68 5.19 15.11Q4.61 15.55 3.75 15.55Q2.53 15.55 1.8 14.69Q1.06 13.84 1.06 12.39L1.06 10.15Q1.06 8.71 1.81 7.86Q2.55 7 3.75 7Q4.62 7 5.2 7.43Q5.79 7.87 6.01 8.65L6.01 7.15L7.84 7.15L7.84 18.1L5.97 18.1ZM4.45 13.93Q5.17 13.93 5.57 13.49Q5.97 13.06 5.97 12.26L5.97 10.28Q5.97 9.49 5.57 9.06Q5.17 8.62 4.45 8.62Q3.73 8.62 3.34 9.01Q2.94 9.4 2.94 10.18L2.94 12.37Q2.94 13.15 3.34 13.54Q3.73 13.93 4.45 13.93Z"/>
<path id="g1" d="M4.5 15.55Q2.92 15.55 2.02 14.67Q1.12 13.8 1.12 12.28L1.12 7.15L3 7.15L3 12.26Q3 13.05 3.39 13.48Q3.78 13.91 4.5 13.91Q5.2 13.91 5.6 13.48Q6 13.05 6 12.26L6 7.15L7.88 7.15L7.88 12.28Q7.88 13.8 6.96 14.67Q6.05 15.55 4.5 15.55Z"/>
<path id="g2" d="M3.31 15.4L0.54 7.15L2.5 7.15L4.09 12.16Q4.24 12.61 4.36 13.07Q4.47 13.52 4.51 13.85Q4.57 13.52 4.67 13.07Q4.77 12.61 4.9 12.17L6.48 7.15L8.46 7.15L5.7 15.4L3.31 15.4Z"/>
<path id="g3" d="M2.47 18.1L3.64 14.95L0.54 7.15L2.52 7.15L4.11 11.36Q4.24 11.74 4.38 12.18Q4.51 12.62 4.57 13Q4.62 12.62 4.75 12.18Q4.88 11.74 5.01 11.36L6.48 7.15L8.46 7.15L4.44 18.1L2.47 18.1Z"/>
<path id="g4" d="M5.32 15.4Q4.17 15.4 3.49 14.73Q2.8 14.06 2.8 12.92L2.8 8.84L0.52 8.84L0.52 7.15L2.8 7.15L2.8 4.82L4.69 4.82L4.69 7.15L7.98 7.15L7.98 8.84L4.69 8.84L4.69 12.88Q4.69 13.24 4.9 13.47Q5.1 13.7 5.46 13.7L7.9 13.7L7.9 15.4L5.32 15.4Z"/>
<path id="g5" d="M3.59 15.55Q2.33 15.55 1.6 14.84Q0.87 14.12 0.87 12.97Q0.87 11.77 1.69 11.06Q2.52 10.34 3.96 10.34L5.97 10.34L5.97 9.76Q5.97 8.51 4.51 8.51Q3.86 8.51 3.46 8.77Q3.08 9.02 3.03 9.49L1.23 9.49Q1.29 8.38 2.17 7.69Q3.04 7 4.53 7Q6.11 7 6.97 7.73Q7.84 8.47 7.84 9.81L7.84 15.4L6.01 15.4L6.01 13.85Q5.91 14.65 5.26 15.1Q4.62 15.55 3.59 15.55ZM4.18 14.02Q5.01 14.02 5.49 13.61Q5.97 13.21 5.97 12.53L5.97 11.56L4.05 11.56Q3.43 11.56 3.08 11.9Q2.71 12.25 2.71 12.79Q2.71 13.34 3.1 13.68Q3.48 14.02 4.18 14.02Z"/>
<path id="g6" d="M4.17 15.52Q2.79 15.52 2.03 14.9Q1.27 14.27 1.27 13.14L2.62 13.14Q2.62 13.7 3.03 14.03Q3.43 14.35 4.17 14.35L4.83 14.35Q5.58 14.35 5.99 14.02Q6.4 13.69 6.4 13.09Q6.4 12.02 5.43 11.89L3.15 11.56Q2.31 11.44 1.84 10.86Q1.38 10.28 1.38 9.34Q1.38 8.26 2.12 7.64Q2.87 7.03 4.17 7.03L4.83 7.03Q6.03 7.03 6.79 7.62Q7.54 8.22 7.61 9.17L6.24 9.17Q6.21 8.74 5.83 8.45Q5.44 8.17 4.83 8.17L4.17 8.17Q3.48 8.17 3.09 8.48Q2.7 8.8 2.7 9.34Q2.7 10.21 3.49 10.33L5.62 10.63Q7.72 10.93 7.72 13.09Q7.72 14.24 6.97 14.88Q6.21 15.52 4.83 15.52L4.17 15.52Z"/>
<path id="g7" d="M1.38 15.4L1.38 4.45L2.73 4.45L2.73 8.73L2.74 8.73Q2.85 7.9 3.42 7.45Q3.99 7 4.93 7Q6.18 7 6.91 7.76Q7.65 8.53 7.65 9.85L7.65 15.4L6.3 15.4L6.3 10.07Q6.3 9.15 5.83 8.64Q5.36 8.14 4.55 8.14Q3.7 8.14 3.22 8.66Q2.73 9.19 2.73 10.15L2.73 15.4L1.38 15.4Z"/>
<path id="g8" d="M4.5 15.52Q3.01 15.52 2.14 14.65Q1.26 13.78 1.26 12.22L1.26 10.33Q1.26 8.75 2.13 7.89Q3 7.03 4.5 7.03Q6 7.03 6.87 7.89Q7.74 8.75 7.74 10.33L7.74 12.22Q7.74 13.78 6.86 14.65Q5.98 15.52 4.5 15.52ZM4.5 14.32Q5.38 14.32 5.89 13.82Q6.39 13.33 6.39 12.37L6.39 10.18Q6.39 9.22 5.89 8.73Q5.38 8.23 4.5 8.23Q3.63 8.23 3.12 8.73Q2.61 9.22 2.61 10.18L2.61 12.37Q2.61 13.33 3.12 13.82Q3.63 14.32 4.5 14.32Z"/>
<path id="g9" d="M1.81 15.4L0.47 7.15L1.63 7.15L2.47 12.97Q2.52 13.3 2.57 13.7Q2.61 14.09 2.62 14.35Q2.65 14.09 2.69 13.7Q2.73 13.3 2.79 12.97L3.82 7.15L5.17 7.15L6.21 12.97Q6.27 13.3 6.32 13.7Q6.38 14.09 6.39 14.35Q6.42 14.09 6.46 13.7Q6.51 13.3 6.55 12.97L7.42 7.15L8.53 7.15L7.12 15.4L5.64 15.4L4.69 9.7Q4.63 9.28 4.58 8.81Q4.53 8.33 4.5 8.08Q4.49 8.33 4.42 8.81Q4.36 9.28 4.29 9.7L3.3 15.4L1.81 15.4Z"/>
<path id="g10" d="M4.62 15.55Q3.12 15.55 2.22 14.71Q1.32 13.87 1.32 12.4L1.32 10.15Q1.32 8.68 2.22 7.84Q3.12 7 4.62 7Q6.05 7 6.92 7.76Q7.8 8.53 7.84 9.85L6.49 9.85Q6.45 9.06 5.95 8.63Q5.46 8.2 4.62 8.2Q3.73 8.2 3.2 8.7Q2.67 9.2 2.67 10.14L2.67 12.4Q2.67 13.33 3.2 13.84Q3.73 14.35 4.62 14.35Q5.46 14.35 5.95 13.91Q6.45 13.48 6.49 12.7L7.84 12.7Q7.8 14.02 6.92 14.78Q6.05 15.55 4.62 15.55Z"/>
<path id="g11" d="M3.78 15.55Q2.5 15.55 1.75 14.84Q1 14.12 1 12.97Q1 12.2 1.35 11.64Q1.69 11.06 2.31 10.74Q2.92 10.42 3.72 10.42L6.27 10.42L6.27 9.77Q6.27 8.17 4.51 8.17Q3.73 8.17 3.25 8.45Q2.77 8.74 2.74 9.25L1.39 9.25Q1.47 8.27 2.3 7.64Q3.13 7 4.51 7Q6.01 7 6.82 7.72Q7.62 8.44 7.62 9.73L7.62 15.4L6.28 15.4L6.28 13.9L6.25 13.9Q6.13 14.66 5.49 15.11Q4.84 15.55 3.78 15.55ZM4.11 14.41Q5.1 14.41 5.68 13.93Q6.27 13.45 6.27 12.62L6.27 11.47L3.87 11.47Q3.21 11.47 2.8 11.87Q2.38 12.26 2.38 12.92Q2.38 13.61 2.84 14.01Q3.3 14.41 4.11 14.41Z"/>
<path id="g12" d="M4.5 15.55Q3.04 15.55 2.15 14.67Q1.26 13.8 1.26 12.25L1.26 10.3Q1.26 8.75 2.15 7.88Q3.04 7 4.5 7Q5.47 7 6.2 7.39Q6.93 7.78 7.34 8.48Q7.74 9.19 7.74 10.15L7.74 11.62L2.58 11.62L2.58 12.4Q2.58 13.31 3.11 13.85Q3.63 14.38 4.5 14.38Q5.25 14.38 5.74 14.09Q6.22 13.8 6.33 13.3L7.68 13.3Q7.54 14.34 6.67 14.94Q5.8 15.55 4.5 15.55ZM2.58 10.57L6.42 10.57L6.42 10.15Q6.42 9.17 5.92 8.64Q5.41 8.11 4.5 8.11Q3.59 8.11 3.08 8.64Q2.58 9.17 2.58 10.15L2.58 10.57Z"/>
<path id="g13" d="M5.32 15.4Q4.3 15.4 3.69 14.81Q3.08 14.22 3.08 13.22L3.08 8.38L0.7 8.38L0.7 7.15L3.08 7.15L3.08 4.82L4.42 4.82L4.42 7.15L7.8 7.15L7.8 8.38L4.42 8.38L4.42 13.22Q4.42 13.64 4.67 13.91Q4.92 14.17 5.32 14.17L7.72 14.17L7.72 15.4L5.32 15.4Z"/>
<path id="g14" d="M0.9 15.4L0.9 7.15L2.07 7.15L2.07 8.24L2.1 8.24Q2.17 7.69 2.54 7.35Q2.91 7 3.48 7Q4.02 7 4.39 7.31Q4.77 7.63 4.93 8.17L4.95 8.17Q5.05 7.63 5.42 7.31Q5.79 7 6.36 7Q7.15 7 7.63 7.59Q8.1 8.18 8.1 9.13L8.1 15.4L6.84 15.4L6.84 9.11Q6.84 8.62 6.6 8.33Q6.36 8.03 5.94 8.03Q5.53 8.03 5.3 8.32Q5.05 8.6 5.05 9.1L5.05 15.4L3.94 15.4L3.94 9.11Q3.94 8.62 3.7 8.33Q3.46 8.03 3.06 8.03Q2.64 8.03 2.4 8.32Q2.16 8.6 2.16 9.1L2.16 15.4L0.9 15.4Z"/>
<path id="g15" d="M1.35 15.4L1.35 4.45L3.15 4.45L6.49 13.82Q6.46 13.45 6.43 12.9Q6.39 12.35 6.37 11.75Q6.34 11.14 6.34 10.6L6.34 4.45L7.65 4.45L7.65 15.4L5.85 15.4L2.52 6.02Q2.55 6.39 2.58 6.93Q2.61 7.48 2.63 8.09Q2.65 8.69 2.65 9.25L2.65 15.4L1.35 15.4Z"/>
<path id="g16" d="M1.68 15.4L1.68 7.15L3.03 7.15L3.03 8.73L3.06 8.73Q3.16 7.93 3.73 7.46Q4.3 7 5.26 7Q6.55 7 7.25 7.77Q7.95 8.55 7.95 9.97L7.95 10.67L6.6 10.67L6.6 9.97Q6.6 8.17 4.84 8.17Q3.96 8.17 3.49 8.68Q3.03 9.19 3.03 10.15L3.03 15.4L1.68 15.4Z"/>
<path id="g17" d="M4.02 15.55Q2.79 15.55 2.05 14.72Q1.3 13.9 1.3 12.49L1.3 10.07Q1.3 8.65 2.04 7.82Q2.77 7 4.02 7Q4.95 7 5.56 7.46Q6.16 7.93 6.28 8.73L6.3 8.73L6.27 6.85L6.27 4.45L7.62 4.45L7.62 15.4L6.27 15.4L6.27 13.82L6.25 13.82Q6.15 14.63 5.55 15.09Q4.95 15.55 4.02 15.55ZM4.47 14.38Q5.31 14.38 5.79 13.85Q6.27 13.33 6.27 12.4L6.27 10.15Q6.27 9.22 5.79 8.69Q5.31 8.17 4.47 8.17Q3.62 8.17 3.13 8.61Q2.65 9.06 2.65 10.07L2.65 12.47Q2.65 13.48 3.13 13.93Q3.62 14.38 4.47 14.38Z"/>
<path id="g18" d="M1.27 15.4L1.27 14.17L4.2 14.17L4.2 8.38L1.57 8.38L1.57 7.15L5.55 7.15L5.55 14.17L8.32 14.17L8.32 15.4L1.27 15.4ZM4.72 5.66Q4.23 5.66 3.94 5.41Q3.66 5.15 3.66 4.72Q3.66 4.27 3.94 4.01Q4.23 3.74 4.72 3.74Q5.22 3.74 5.51 4.01Q5.79 4.27 5.79 4.72Q5.79 5.15 5.51 5.41Q5.22 5.66 4.72 5.66Z"/>
<path id="g19" d="M4.08 12.82L0.48 9.22Q0.3 9.04 0.3 8.8Q0.3 8.55 0.48 8.38Q0.66 8.2 0.91 8.2Q1.17 8.2 1.33 8.38L4.51 11.55L7.68 8.38Q7.86 8.2 8.1 8.2Q8.35 8.2 8.53 8.38Q8.72 8.56 8.7 8.8Q8.7 9.06 8.53 9.22L4.92 12.82Q4.74 13 4.5 13Q4.26 13 4.08 12.82Z"/>
<path id="g20" d="M5.7 15.4Q4.61 15.4 3.95 14.76Q3.3 14.12 3.3 13.07L3.3 5.68L0.45 5.68L0.45 4.45L4.65 4.45L4.65 13.07Q4.65 13.59 4.93 13.88Q5.22 14.17 5.7 14.17L8.25 14.17L8.25 15.4L5.7 15.4Z"/>
<path id="g21" d="M1.38 15.4L1.38 7.15L2.73 7.15L2.73 8.73L2.74 8.73Q2.85 7.9 3.42 7.45Q3.99 7 4.93 7Q6.18 7 6.91 7.76Q7.65 8.53 7.65 9.85L7.65 15.4L6.3 15.4L6.3 10.09Q6.3 9.15 5.83 8.64Q5.36 8.14 4.55 8.14Q3.7 8.14 3.22 8.66Q2.73 9.19 2.73 10.15L2.73 15.4L1.38 15.4Z"/>
<path id="g22" d="M2.41 18.1L2.41 16.87L4.74 16.87Q5.44 16.87 5.85 16.47Q6.25 16.07 6.25 15.4L6.25 14.65L6.28 13.3L6.24 13.3Q6.12 14.03 5.53 14.43Q4.95 14.83 4.07 14.83Q2.79 14.83 2.06 14.02Q1.32 13.21 1.32 11.8L1.32 10.06Q1.32 8.65 2.06 7.82Q2.79 7 4.07 7Q4.95 7 5.53 7.42Q6.12 7.84 6.24 8.57L6.27 8.57L6.27 7.15L7.61 7.15L7.61 15.4Q7.61 16.65 6.83 17.37Q6.06 18.1 4.72 18.1L2.41 18.1ZM4.47 13.7Q5.31 13.7 5.79 13.18Q6.27 12.65 6.27 11.72L6.27 10.15Q6.27 9.22 5.79 8.69Q5.31 8.17 4.47 8.17Q3.62 8.17 3.14 8.66Q2.67 9.16 2.67 10L2.67 11.88Q2.67 12.72 3.14 13.21Q3.62 13.7 4.47 13.7Z"/>
<path id="g23" d="M4.49 15.55Q3.06 15.55 2.2 14.7Q1.35 13.85 1.35 12.4L1.35 7.15L2.7 7.15L2.7 12.4Q2.7 13.3 3.18 13.83Q3.66 14.36 4.49 14.36Q5.32 14.36 5.81 13.83Q6.3 13.3 6.3 12.4L6.3 7.15L7.65 7.15L7.65 12.4Q7.65 13.85 6.78 14.7Q5.91 15.55 4.49 15.55Z"/>
<path id="g24" d="M1.5 15.4L1.5 4.45L7.8 4.45L7.8 5.68L2.84 5.68L2.84 9.07L7.27 9.07L7.27 10.27L2.84 10.27L2.84 14.17L7.8 14.17L7.8 15.4L1.5 15.4Z"/>
<path id="g25" d="M0.75 15.4L3.6 4.45L5.41 4.45L8.25 15.4L6.88 15.4L6.16 12.49L2.85 12.49L2.13 15.4L0.75 15.4ZM3.12 11.35L5.88 11.35L5.04 7.97Q4.8 7.01 4.66 6.37Q4.53 5.72 4.5 5.53Q4.47 5.72 4.34 6.37Q4.2 7.01 3.96 7.96L3.12 11.35Z"/>
<path id="g26" d="M4.72 15.4L2.2 15.4L4.23 9.92L2.2 4.45L4.72 4.45L6.75 9.95L4.72 15.4Z"/>
<path id="g27" d="M1.38 18.1L1.38 7.15L2.73 7.15L2.73 8.73L2.74 8.73Q2.85 7.91 3.45 7.46Q4.05 7 4.98 7Q6.22 7 6.96 7.82Q7.69 8.64 7.69 10.06L7.69 12.47Q7.69 13.9 6.96 14.72Q6.22 15.55 4.98 15.55Q4.05 15.55 3.45 15.09Q2.85 14.62 2.74 13.82L2.7 13.82L2.73 15.7L2.73 18.1L1.38 18.1ZM4.53 14.38Q5.38 14.38 5.86 13.93Q6.34 13.48 6.34 12.47L6.34 10.07Q6.34 9.06 5.86 8.61Q5.38 8.17 4.53 8.17Q3.7 8.17 3.22 8.69Q2.73 9.22 2.73 10.15L2.73 12.4Q2.73 13.33 3.22 13.85Q3.7 14.38 4.53 14.38Z"/>
<path id="g28" d="M4.5 15.55Q3.4 15.55 2.57 15.14Q1.72 14.72 1.26 14Q0.79 13.27 0.79 12.31Q0.79 11.31 1.37 10.56Q1.95 9.81 2.88 9.61L2.88 9.58Q2.09 9.41 1.6 8.77Q1.11 8.12 1.11 7.24Q1.11 6.37 1.54 5.71Q1.96 5.05 2.73 4.68Q3.49 4.3 4.5 4.3Q5.51 4.3 6.28 4.68Q7.05 5.05 7.48 5.71Q7.9 6.37 7.9 7.24Q7.9 8.12 7.41 8.77Q6.91 9.41 6.12 9.58L6.12 9.61Q7.05 9.81 7.63 10.56Q8.2 11.31 8.2 12.31Q8.2 13.27 7.74 14Q7.27 14.72 6.43 15.14Q5.59 15.55 4.5 15.55ZM4.5 8.93Q5.2 8.93 5.64 8.51Q6.07 8.08 6.07 7.4Q6.07 6.72 5.64 6.29Q5.2 5.86 4.5 5.86Q3.79 5.86 3.36 6.29Q2.92 6.72 2.92 7.4Q2.92 8.08 3.36 8.51Q3.79 8.93 4.5 8.93ZM4.5 13.96Q5.32 13.96 5.85 13.48Q6.38 13 6.38 12.22Q6.38 11.42 5.85 10.94Q5.32 10.45 4.5 10.45Q3.67 10.45 3.15 10.94Q2.62 11.42 2.62 12.22Q2.62 13 3.15 13.48Q3.67 13.96 4.5 13.96Z"/>
<path id="g29" d="M4.5 15.55Q3.87 15.55 3.49 15.17Q3.11 14.78 3.11 14.17Q3.11 13.55 3.49 13.16Q3.87 12.77 4.5 12.77Q5.13 12.77 5.51 13.16Q5.89 13.55 5.89 14.17Q5.89 14.78 5.51 15.17Q5.13 15.55 4.5 15.55Z"/>
<path id="g30" d="M4.39 15.55Q2.77 15.55 1.83 14.7Q0.88 13.85 0.88 12.4L2.77 12.4Q2.77 13.09 3.21 13.5Q3.64 13.91 4.41 13.91Q5.16 13.91 5.59 13.5Q6.03 13.09 6.03 12.4L6.03 11.57Q6.03 10.84 5.6 10.43Q5.17 10.01 4.41 10.01L3.03 10.01L3.03 8.51L5.55 6.1L1.27 6.1L1.27 4.45L7.61 4.45L7.61 6.04L5.09 8.45Q6.4 8.64 7.16 9.45Q7.92 10.27 7.92 11.57L7.92 12.4Q7.92 13.85 6.97 14.7Q6.01 15.55 4.39 15.55Z"/>
<path id="g31" d="M1.12 15.4L1.12 4.45L4.38 4.45Q5.49 4.45 6.31 4.88Q7.12 5.31 7.57 6.07Q8.02 6.84 8.02 7.87L8.02 11.97Q8.02 13 7.57 13.77Q7.12 14.55 6.31 14.97Q5.49 15.4 4.38 15.4L1.12 15.4ZM3 13.72L4.38 13.72Q5.19 13.72 5.67 13.25Q6.15 12.77 6.15 11.97L6.15 7.87Q6.15 7.07 5.67 6.6Q5.19 6.13 4.38 6.13L3 6.13L3 13.72Z"/>
<path id="g32" d="M4.15 15.53Q2.68 15.53 1.83 14.87Q0.97 14.2 0.97 13.06L2.82 13.06Q2.82 13.54 3.17 13.8Q3.52 14.05 4.15 14.05L4.82 14.05Q5.49 14.05 5.86 13.8Q6.22 13.54 6.22 13.06Q6.22 12.61 5.97 12.39Q5.71 12.17 5.19 12.1L3.13 11.83Q2.14 11.69 1.61 11.06Q1.08 10.43 1.08 9.43Q1.08 8.26 1.86 7.64Q2.64 7.01 4.11 7.01L4.8 7.01Q6.18 7.01 7.02 7.64Q7.86 8.27 7.89 9.32L6.03 9.32Q6.01 8.93 5.68 8.7Q5.36 8.47 4.8 8.47L4.11 8.47Q3.51 8.47 3.19 8.72Q2.88 8.97 2.88 9.39Q2.88 9.76 3.11 9.94Q3.35 10.12 3.79 10.16L5.73 10.43Q6.87 10.57 7.45 11.24Q8.02 11.9 8.02 13.03Q8.02 14.23 7.21 14.88Q6.39 15.53 4.82 15.53L4.15 15.53Z"/>
<path id="g33" d="M1.15 15.4L1.15 4.45L3.03 4.45L3.03 7.15L2.98 8.68Q3.13 7.9 3.72 7.45Q4.3 7 5.2 7Q6.42 7 7.15 7.81Q7.88 8.62 7.88 9.98L7.88 15.4L6 15.4L6 10.21Q6 9.44 5.6 9.03Q5.2 8.62 4.53 8.62Q3.82 8.62 3.43 9.04Q3.03 9.46 3.03 10.24L3.03 15.4L1.15 15.4Z"/>
<path id="g34" d="M5.25 15.55Q4.38 15.55 3.79 15.11Q3.21 14.68 2.98 13.9L2.98 15.4L1.15 15.4L1.15 4.45L3.03 4.45L3.03 6.76L2.97 8.65Q3.21 7.87 3.8 7.43Q4.39 7 5.25 7Q6.46 7 7.2 7.86Q7.93 8.71 7.93 10.16L7.93 12.4Q7.93 13.84 7.19 14.69Q6.45 15.55 5.25 15.55ZM4.55 13.93Q5.26 13.93 5.66 13.54Q6.06 13.15 6.06 12.34L6.06 10.21Q6.06 9.4 5.66 9.01Q5.26 8.62 4.55 8.62Q3.82 8.62 3.43 9.06Q3.03 9.49 3.03 10.28L3.03 12.26Q3.03 13.06 3.43 13.49Q3.82 13.93 4.55 13.93Z"/>
<path id="g35" d="M4.5 15.53Q2.91 15.53 1.98 14.64Q1.05 13.75 1.05 12.23L1.05 10.31Q1.05 8.78 1.98 7.9Q2.91 7.01 4.5 7.01Q6.09 7.01 7.02 7.9Q7.95 8.78 7.95 10.31L7.95 12.23Q7.95 13.75 7.02 14.64Q6.09 15.53 4.5 15.53ZM4.5 13.9Q5.25 13.9 5.66 13.49Q6.07 13.07 6.07 12.3L6.07 10.25Q6.07 9.48 5.66 9.06Q5.25 8.65 4.5 8.65Q3.75 8.65 3.34 9.06Q2.92 9.48 2.92 10.25L2.92 12.3Q2.92 13.07 3.34 13.49Q3.75 13.9 4.5 13.9Z"/>
<path id="g36" d="M1.45 15.4L1.45 7.15L3.28 7.15L3.28 8.75Q3.43 7.94 4.03 7.47Q4.62 7 5.57 7Q6.82 7 7.53 7.81Q8.23 8.62 8.23 10.07L8.23 10.85L6.36 10.85L6.36 10.16Q6.36 9.41 5.97 9.02Q5.58 8.62 4.86 8.62Q4.11 8.62 3.72 9.07Q3.33 9.52 3.33 10.34L3.33 15.4L1.45 15.4Z"/>
<path id="g37" d="M3.75 15.55Q2.55 15.55 1.81 14.69Q1.06 13.84 1.06 12.4L1.06 10.16Q1.06 8.71 1.8 7.86Q2.53 7 3.75 7Q4.61 7 5.2 7.43Q5.79 7.87 6.03 8.65L5.97 6.76L5.97 4.45L7.84 4.45L7.84 15.4L6.01 15.4L6.01 13.9Q5.79 14.68 5.2 15.11Q4.62 15.55 3.75 15.55ZM4.45 13.93Q5.17 13.93 5.57 13.49Q5.97 13.06 5.97 12.26L5.97 10.28Q5.97 9.49 5.57 9.06Q5.17 8.62 4.45 8.62Q3.73 8.62 3.34 9.01Q2.94 9.4 2.94 10.21L2.94 12.34Q2.94 13.15 3.34 13.54Q3.73 13.93 4.45 13.93Z"/>
<path id="g38" d="M0.6 15.4L3.75 9.85L0.76 4.45L2.33 4.45L4.02 7.69Q4.15 7.94 4.3 8.24Q4.44 8.53 4.53 8.69Q4.61 8.53 4.75 8.24Q4.89 7.94 5.03 7.69L6.75 4.45L8.23 4.45L5.25 9.76L8.4 15.4L6.86 15.4L4.98 11.92Q4.84 11.66 4.7 11.37Q4.56 11.08 4.49 10.9Q4.41 11.08 4.27 11.36Q4.12 11.65 3.99 11.9L2.1 15.4L0.6 15.4Z"/>
<path id="g39" d="M1.08 15.4L1.08 4.45L3.08 4.45L4.47 9.19L5.92 4.45L7.92 4.45L7.92 15.4L6.61 15.4L6.61 10.23Q6.61 9.49 6.64 8.54Q6.66 7.58 6.7 6.61Q6.75 5.64 6.81 4.85L5.04 10.51L3.87 10.51L2.17 4.99Q2.29 6.1 2.34 7.42Q2.38 8.74 2.38 10.23L2.38 15.4L1.08 15.4Z"/>
<path id="g40" d="M1.38 15.4L1.38 4.45L4.9 4.45Q6.43 4.45 7.34 5.33Q8.25 6.2 8.25 7.67Q8.25 9.15 7.34 10.02Q6.43 10.9 4.9 10.9L2.73 10.9L2.73 15.4L1.38 15.4ZM2.73 9.68L4.9 9.68Q5.79 9.68 6.32 9.14Q6.86 8.59 6.86 7.67Q6.86 6.74 6.32 6.2Q5.79 5.66 4.9 5.66L2.73 5.66L2.73 9.68Z"/>
<path id="g41" d="M1.95 15.4L1.95 4.45L3.3 4.45L3.3 14.17L8.25 14.17L8.25 15.4L1.95 15.4Z"/>
<path id="g42" d="M4.56 15.55Q2.97 15.55 2.02 14.71Q1.08 13.87 1.08 12.4L2.43 12.4Q2.43 13.31 3.01 13.83Q3.6 14.35 4.56 14.35Q5.49 14.35 6.05 13.81Q6.6 13.27 6.6 12.4Q6.6 11.74 6.25 11.25Q5.89 10.76 5.23 10.58L3.57 10.12Q2.53 9.82 1.94 9.05Q1.35 8.27 1.35 7.22Q1.35 6.35 1.74 5.69Q2.13 5.03 2.84 4.67Q3.54 4.3 4.45 4.3Q5.38 4.3 6.1 4.67Q6.81 5.03 7.21 5.69Q7.62 6.34 7.62 7.19L6.27 7.19Q6.27 6.44 5.76 5.97Q5.25 5.5 4.45 5.5Q3.66 5.5 3.16 5.97Q2.67 6.44 2.67 7.19Q2.67 7.79 2.99 8.22Q3.31 8.65 3.9 8.81L5.61 9.3Q6.7 9.59 7.31 10.43Q7.92 11.26 7.92 12.4Q7.92 13.84 7 14.69Q6.09 15.55 4.56 15.55Z"/>
<path id="g43" d="M4.5 11.5Q3.94 11.5 3.61 11.17Q3.27 10.84 3.27 10.31Q3.27 9.76 3.61 9.41Q3.94 9.07 4.5 9.07Q5.05 9.07 5.39 9.41Q5.73 9.76 5.73 10.31Q5.73 10.84 5.39 11.17Q5.05 11.5 4.5 11.5Z"/>
<path id="g44" d="M4.34 15.55Q2.82 15.55 1.93 14.7Q1.05 13.85 1.05 12.4L2.4 12.4Q2.4 13.3 2.92 13.82Q3.45 14.35 4.35 14.35Q5.25 14.35 5.78 13.82Q6.3 13.3 6.3 12.4L6.3 11.65Q6.3 10.75 5.78 10.23Q5.25 9.7 4.35 9.7L3.16 9.7L3.16 8.53L5.85 5.68L1.35 5.68L1.35 4.45L7.38 4.45L7.38 5.71L4.74 8.51Q6.09 8.62 6.87 9.45Q7.65 10.28 7.65 11.65L7.65 12.4Q7.65 13.85 6.76 14.7Q5.86 15.55 4.34 15.55Z"/>
<path id="g45" d="M1.12 17.05L6.45 2.95L7.88 2.95L2.55 17.05L1.12 17.05Z"/>
<path id="g46" d="M4.41 15.55Q2.89 15.55 2.01 14.7Q1.12 13.85 1.12 12.4L2.47 12.4Q2.47 13.3 3 13.82Q3.52 14.35 4.42 14.35Q5.32 14.35 5.85 13.82Q6.38 13.3 6.38 12.4L6.38 11.72Q6.38 10.82 5.86 10.3Q5.36 9.77 4.49 9.77L1.5 9.77L1.5 4.45L7.34 4.45L7.34 5.68L2.76 5.68L2.79 8.55L4.56 8.55Q6.07 8.55 6.9 9.38Q7.72 10.21 7.72 11.72L7.72 12.4Q7.72 13.85 6.83 14.7Q5.94 15.55 4.41 15.55Z"/>
<path id="g47" d="M4.5 15.55Q3.94 15.55 3.61 15.22Q3.27 14.89 3.27 14.36Q3.27 13.81 3.61 13.47Q3.94 13.12 4.5 13.12Q5.05 13.12 5.39 13.47Q5.73 13.81 5.73 14.36Q5.73 14.89 5.39 15.22Q5.05 15.55 4.5 15.55Z"/>
<path id="g48" d="M1.29 15.4L1.29 14.15L4.93 10.25Q5.73 9.41 6.06 8.75Q6.39 8.09 6.39 7.46Q6.39 6.56 5.87 6.03Q5.36 5.5 4.47 5.5Q3.55 5.5 3.02 6.05Q2.49 6.6 2.49 7.52L1.14 7.52Q1.18 6.04 2.09 5.17Q2.98 4.3 4.47 4.3Q5.98 4.3 6.88 5.15Q7.77 6.01 7.77 7.48Q7.77 8.26 7.34 9.13Q6.91 10 5.88 11.08L2.92 14.17L7.9 14.17L7.9 15.4L1.29 15.4Z"/>
<path id="g49" d="M4.62 15.55Q3.12 15.55 2.25 14.71Q1.38 13.87 1.38 12.4L1.38 7.45Q1.38 5.98 2.25 5.14Q3.12 4.3 4.62 4.3Q6.09 4.3 6.96 5.15Q7.83 5.99 7.83 7.45L6.48 7.45Q6.48 6.52 5.99 6.02Q5.51 5.51 4.62 5.51Q3.73 5.51 3.23 6.02Q2.73 6.52 2.73 7.45L2.73 12.4Q2.73 13.33 3.23 13.83Q3.73 14.34 4.62 14.34Q5.51 14.34 5.99 13.83Q6.48 13.33 6.48 12.4L7.83 12.4Q7.83 13.85 6.96 14.7Q6.09 15.55 4.62 15.55Z"/>
<path id="g50" d="M3.22 15.4L3.22 9.5L0.82 9.5L0.82 8.27L3.22 8.27L3.22 6.55Q3.22 5.57 3.84 5.01Q4.45 4.45 5.53 4.45L7.95 4.45L7.95 5.68L5.53 5.68Q4.57 5.68 4.57 6.55L4.57 8.27L7.95 8.27L7.95 9.5L4.57 9.5L4.57 15.4L3.22 15.4Z"/>
<path id="g51" d="M1.26 15.4L1.26 13.7L4.11 13.7L4.11 6.26L1.25 8.36L1.25 6.26L3.76 4.45L5.98 4.45L5.98 13.7L8.28 13.7L8.28 15.4L1.26 15.4Z"/>
<path id="g52" d="M4.51 15.55Q3.46 15.55 2.68 15.14Q1.9 14.74 1.48 14Q1.05 13.25 1.05 12.25L1.05 10.3Q1.05 9.3 1.48 8.55Q1.9 7.81 2.68 7.4Q3.46 7 4.51 7Q5.55 7 6.32 7.4Q7.09 7.81 7.52 8.54Q7.95 9.26 7.95 10.24L7.95 11.74L2.85 11.74L2.85 12.31Q2.85 13.15 3.28 13.58Q3.72 14 4.51 14Q5.1 14 5.51 13.8Q5.92 13.6 6 13.21L7.86 13.21Q7.66 14.27 6.75 14.91Q5.84 15.55 4.51 15.55ZM2.85 10.24L2.85 10.52L6.15 10.51L6.15 10.23Q6.15 9.37 5.73 8.9Q5.31 8.44 4.51 8.44Q3.69 8.44 3.27 8.91Q2.85 9.39 2.85 10.24Z"/>
<path id="g53" d="M0.7 15.4L0.7 7.15L2.26 7.15L2.26 8.35L2.31 8.35Q2.36 7.75 2.73 7.38Q3.11 7 3.67 7Q4.23 7 4.62 7.35Q5.01 7.7 5.14 8.31Q5.2 7.7 5.59 7.35Q5.97 7 6.55 7Q7.3 7 7.8 7.59Q8.3 8.18 8.3 9.11L8.3 15.4L6.64 15.4L6.64 9.25Q6.64 8.84 6.46 8.61Q6.27 8.38 5.92 8.38Q5.25 8.38 5.25 9.25L5.25 15.4L3.75 15.4L3.75 9.25Q3.75 8.84 3.58 8.61Q3.4 8.38 3.08 8.38Q2.36 8.38 2.36 9.25L2.36 15.4L0.7 15.4Z"/>
<path id="g54" d="M4.56 15.55Q3.06 15.55 2.19 14.71Q1.32 13.87 1.32 12.4L1.32 7.45Q1.32 5.98 2.19 5.14Q3.06 4.3 4.56 4.3Q6.03 4.3 6.9 5.15Q7.77 5.99 7.77 7.45L6.42 7.45Q6.42 6.52 5.93 6.02Q5.44 5.51 4.56 5.51Q3.67 5.51 3.17 6.01Q2.67 6.51 2.67 7.43L2.67 12.4Q2.67 13.33 3.17 13.84Q3.67 14.35 4.56 14.35Q5.44 14.35 5.93 13.84Q6.42 13.33 6.42 12.4L6.42 10.9L4.2 10.9L4.2 9.67L7.77 9.67L7.77 12.4Q7.77 13.85 6.9 14.7Q6.03 15.55 4.56 15.55Z"/>
<path id="g55" d="M6 15.4L6 13L1.05 13L1.05 10.89L5.04 4.45L6.57 4.45L2.4 11.18L2.4 11.77L6 11.77L6 9.1L7.35 9.1L7.35 15.4L6 15.4Z"/>
<path id="g56" d="M1.39 15.4L1.39 4.45L4.77 4.45Q5.74 4.45 6.48 4.85Q7.21 5.24 7.62 5.95Q8.02 6.65 8.02 7.6Q8.02 8.71 7.45 9.5Q6.88 10.3 5.94 10.61L8.18 15.4L6.69 15.4L4.55 10.75L2.73 10.75L2.73 15.4L1.39 15.4ZM2.73 9.53L4.77 9.53Q5.61 9.53 6.12 9Q6.63 8.47 6.63 7.6Q6.63 6.72 6.12 6.19Q5.61 5.66 4.77 5.66L2.73 5.66L2.73 9.53Z"/>
<path id="g57" d="M3.62 15.4L0.81 7.15L2.26 7.15L4.07 12.7Q4.23 13.19 4.35 13.65Q4.47 14.11 4.53 14.36Q4.61 14.11 4.71 13.65Q4.82 13.19 4.96 12.7L6.76 7.15L8.19 7.15L5.38 15.4L3.62 15.4Z"/>
<path id="g58" d="M1.42 15.4L1.42 4.45L7.88 4.45L7.88 5.68L2.74 5.68L2.74 9.31L7.48 9.31L7.48 10.54L2.77 10.54L2.77 15.4L1.42 15.4Z"/>
<path id="g59" d="M0.75 15.4L3.67 11.15L0.93 7.15L2.52 7.15L4.15 9.7Q4.26 9.86 4.36 10.06Q4.45 10.25 4.51 10.38Q4.56 10.25 4.66 10.06Q4.76 9.86 4.86 9.7L6.49 7.15L8.09 7.15L5.34 11.17L8.25 15.4L6.66 15.4L4.89 12.7Q4.78 12.53 4.69 12.32Q4.59 12.1 4.51 11.97Q4.45 12.1 4.34 12.32Q4.23 12.53 4.11 12.7L2.34 15.4L0.75 15.4Z"/>
<path id="g60" d="M4.5 15.55Q3.03 15.55 2.17 14.69Q1.32 13.84 1.32 12.25L1.32 7.6Q1.32 6.01 2.17 5.15Q3.03 4.3 4.5 4.3Q5.97 4.3 6.82 5.15Q7.68 6.01 7.68 7.58L7.68 12.25Q7.68 13.84 6.82 14.69Q5.97 15.55 4.5 15.55ZM4.5 14.34Q5.38 14.34 5.86 13.83Q6.33 13.33 6.33 12.4L6.33 7.45Q6.33 6.52 5.86 6.02Q5.38 5.51 4.5 5.51Q3.63 5.51 3.15 6.02Q2.67 6.52 2.67 7.45L2.67 12.4Q2.67 13.33 3.15 13.83Q3.63 14.34 4.5 14.34Z"/>
<path id="g61" d="M3.82 15.4L3.82 5.68L0.82 5.68L0.82 4.45L8.18 4.45L8.18 5.68L5.17 5.68L5.17 15.4L3.82 15.4Z"/>
<path id="g62" d="M1.57 15.4L1.57 14.17L3.81 14.17L3.81 5.68L1.57 5.68L1.57 4.45L7.42 4.45L7.42 5.68L5.19 5.68L5.19 14.17L7.42 14.17L7.42 15.4L1.57 15.4Z"/>
<path id="g63" d="M1.39 15.4L1.39 4.45L2.74 4.45L2.74 9.13L6.25 9.13L6.25 4.45L7.61 4.45L7.61 15.4L6.25 15.4L6.25 10.36L2.74 10.36L2.74 15.4L1.39 15.4Z"/>
<path id="g64" d="M3.15 17.8L3.97 13.21L5.59 13.21L4.55 17.8L3.15 17.8Z"/>
<path id="g65" d="M4.5 15.55Q2.97 15.55 2.16 14.7Q1.35 13.85 1.35 12.4L1.35 4.45L2.7 4.45L2.7 12.4Q2.7 13.3 3.14 13.82Q3.59 14.35 4.5 14.35Q5.4 14.35 5.85 13.82Q6.3 13.3 6.3 12.4L6.3 4.45L7.65 4.45L7.65 12.4Q7.65 13.87 6.85 14.71Q6.05 15.55 4.5 15.55Z"/>
<path id="g66" d="M2.1 11.05L2.1 9.85L6.9 9.85L6.9 11.05L2.1 11.05Z"/>
<path id="g67" d="M1.15 15.4L1.15 4.45L4.61 4.45Q5.7 4.45 6.5 4.85Q7.3 5.26 7.75 5.99Q8.2 6.72 8.2 7.7Q8.2 8.8 7.66 9.62Q7.12 10.43 6.21 10.78L8.35 15.4L6.3 15.4L4.38 11.05L3.01 11.05L3.01 15.4L1.15 15.4ZM3.01 9.4L4.61 9.4Q5.4 9.4 5.85 8.97Q6.3 8.53 6.3 7.76Q6.3 7 5.84 6.55Q5.38 6.1 4.61 6.1L3.01 6.1L3.01 9.4Z"/>
<path id="g68" d="M3 15.4L3 9.97L0.73 9.97L0.73 8.27L3 8.27L3 6.82Q3 5.74 3.72 5.1Q4.44 4.45 5.62 4.45L8.04 4.45L8.04 6.1L5.67 6.1Q5.31 6.1 5.09 6.3Q4.88 6.51 4.88 6.85L4.88 8.27L8.04 8.27L8.04 9.97L4.88 9.97L4.88 15.4L3 15.4Z"/>
<path id="g69" d="M4.51 15.55Q3.46 15.55 2.66 15.11Q1.86 14.66 1.41 13.88Q0.96 13.09 0.96 12.05Q0.96 11.33 1.23 10.58Q1.5 9.82 1.96 8.99L4.5 4.45L6 4.45L3.3 9.15L3.35 9.17Q3.54 8.92 3.93 8.78Q4.32 8.65 4.78 8.65Q5.76 8.65 6.49 9.08Q7.21 9.5 7.63 10.25Q8.04 11 8.04 11.99Q8.04 13.05 7.59 13.85Q7.14 14.65 6.35 15.1Q5.57 15.55 4.51 15.55ZM4.5 14.35Q5.47 14.35 6.08 13.7Q6.69 13.06 6.69 12.02Q6.69 10.99 6.08 10.34Q5.47 9.7 4.5 9.7Q3.52 9.7 2.92 10.34Q2.31 10.99 2.31 12.02Q2.31 13.06 2.92 13.7Q3.52 14.35 4.5 14.35Z"/>
<path id="g70" d="M2.28 18.1L2.28 16.54L4.61 16.54Q5.26 16.54 5.62 16.19Q5.98 15.84 5.98 15.23L5.98 14.74L6.01 13.45Q5.76 14.14 5.2 14.52Q4.63 14.9 3.82 14.9Q2.57 14.9 1.82 14.06Q1.08 13.21 1.08 11.75L1.08 10.15Q1.08 8.71 1.82 7.86Q2.57 7 3.82 7Q4.63 7 5.2 7.38Q5.76 7.76 6.01 8.47L6.01 7.15L7.84 7.15L7.84 15.28Q7.84 16.58 6.98 17.34Q6.12 18.1 4.63 18.1L2.28 18.1ZM4.45 13.3Q5.17 13.3 5.57 12.87Q5.97 12.44 5.97 11.68L5.97 10.24Q5.97 9.48 5.57 9.05Q5.17 8.62 4.45 8.62Q3.73 8.62 3.35 9.03Q2.95 9.44 2.95 10.18L2.95 11.74Q2.95 12.47 3.35 12.89Q3.73 13.3 4.45 13.3Z"/>
<path id="g71" d="M2.1 11.32L2.1 9.58L6.9 9.58L6.9 11.32L2.1 11.32Z"/>
<path id="g72" d="M4.5 15.55Q3.43 15.55 2.65 15.14Q1.88 14.74 1.45 14Q1.02 13.27 1.02 12.28L1.02 7.57Q1.02 6.58 1.45 5.85Q1.88 5.11 2.65 4.7Q3.43 4.3 4.5 4.3Q5.57 4.3 6.34 4.7Q7.12 5.11 7.55 5.85Q7.98 6.58 7.98 7.57L7.98 12.28Q7.98 13.27 7.55 14Q7.12 14.74 6.34 15.14Q5.57 15.55 4.5 15.55ZM4.5 13.93Q5.28 13.93 5.74 13.48Q6.21 13.03 6.21 12.28L6.21 7.57Q6.21 6.82 5.75 6.37Q5.3 5.92 4.5 5.92Q3.7 5.92 3.25 6.37Q2.79 6.82 2.79 7.57L2.79 12.28Q2.79 13.03 3.25 13.48Q3.72 13.93 4.5 13.93ZM4.5 10.82Q4.05 10.82 3.78 10.58Q3.51 10.33 3.51 9.88Q3.51 9.43 3.78 9.2Q4.05 8.97 4.5 8.97Q4.95 8.97 5.22 9.2Q5.49 9.43 5.49 9.88Q5.49 10.33 5.22 10.58Q4.95 10.82 4.5 10.82Z"/>
<path id="g73" d="M2.85 15.4L6.75 5.68L2.58 5.68L2.58 7.45L1.23 7.45L1.23 4.45L8.19 4.45L8.19 5.71L4.32 15.4L2.85 15.4Z"/>
<path id="g74" d="M4.5 15.55Q3.46 15.55 2.67 15.14Q1.88 14.74 1.43 14.01Q0.99 13.28 0.99 12.34Q0.99 11.31 1.58 10.56Q2.17 9.81 3.16 9.64L3.16 9.59Q2.31 9.4 1.8 8.73Q1.29 8.06 1.29 7.19Q1.29 6.34 1.69 5.69Q2.1 5.03 2.83 4.67Q3.55 4.3 4.5 4.3Q5.46 4.3 6.18 4.67Q6.9 5.03 7.3 5.69Q7.71 6.34 7.71 7.19Q7.71 8.06 7.2 8.73Q6.69 9.4 5.84 9.59L5.84 9.64Q6.82 9.81 7.42 10.56Q8.01 11.31 8.01 12.34Q8.01 13.28 7.57 14.01Q7.12 14.74 6.34 15.14Q5.55 15.55 4.5 15.55ZM4.5 9.07Q5.34 9.07 5.85 8.57Q6.36 8.08 6.36 7.28Q6.36 6.49 5.85 5.99Q5.34 5.5 4.5 5.5Q3.67 5.5 3.16 5.99Q2.64 6.49 2.64 7.28Q2.64 8.08 3.16 8.57Q3.67 9.07 4.5 9.07ZM4.5 14.34Q5.46 14.34 6.06 13.77Q6.66 13.21 6.66 12.31Q6.66 11.39 6.06 10.83Q5.46 10.27 4.5 10.27Q3.54 10.27 2.94 10.83Q2.34 11.39 2.34 12.31Q2.34 13.21 2.94 13.77Q3.54 14.34 4.5 14.34Z"/>
<path id="g75" d="M2.67 18.1L3.88 14.89L0.81 7.15L2.26 7.15L4.21 12.25Q4.34 12.55 4.44 12.88Q4.55 13.21 4.59 13.45Q4.63 13.21 4.74 12.88Q4.84 12.55 4.95 12.25L6.76 7.15L8.19 7.15L4.08 18.1L2.67 18.1Z"/>
<path id="g76" d="M4.5 14.65Q3.18 14.65 2.12 14.04Q1.06 13.43 0.46 12.38Q-0.15 11.32 -0.15 10Q-0.15 8.66 0.46 7.61Q1.06 6.56 2.12 5.96Q3.18 5.35 4.5 5.35Q5.84 5.35 6.88 5.96Q7.93 6.56 8.54 7.61Q9.15 8.66 9.15 10Q9.15 11.32 8.54 12.38Q7.93 13.43 6.88 14.04Q5.84 14.65 4.5 14.65Z"/>
<path id="g77" d="M1.11 15.4L1.11 13.7L5.05 9.67Q6.01 8.66 6.01 7.63Q6.01 6.89 5.59 6.44Q5.16 5.98 4.44 5.98Q3.7 5.98 3.26 6.45Q2.82 6.93 2.82 7.7L0.94 7.7Q0.94 6.68 1.39 5.92Q1.84 5.15 2.64 4.73Q3.43 4.3 4.49 4.3Q5.52 4.3 6.3 4.7Q7.08 5.11 7.51 5.84Q7.93 6.56 7.93 7.54Q7.93 8.38 7.54 9.22Q7.14 10.06 6.22 10.96L3.46 13.7L8.07 13.7L8.07 15.4L1.11 15.4Z"/>
<path id="g78" d="M2.92 15.4L5.62 10.7L5.58 10.67Q5.43 10.91 5.03 11.06Q4.62 11.2 4.14 11.2Q3.19 11.2 2.48 10.77Q1.77 10.34 1.37 9.59Q0.96 8.84 0.96 7.86Q0.96 6.79 1.41 5.99Q1.86 5.2 2.65 4.75Q3.45 4.3 4.49 4.3Q5.55 4.3 6.34 4.74Q7.14 5.18 7.59 5.97Q8.04 6.76 8.04 7.79Q8.04 8.51 7.77 9.27Q7.5 10.03 7.03 10.85L4.5 15.4L2.92 15.4ZM4.5 10.15Q5.47 10.15 6.08 9.5Q6.69 8.86 6.69 7.82Q6.69 6.79 6.08 6.14Q5.47 5.5 4.5 5.5Q3.52 5.5 2.92 6.14Q2.31 6.79 2.31 7.82Q2.31 8.86 2.92 9.5Q3.52 10.15 4.5 10.15Z"/>
<path id="g79" d="M1.35 15.4L1.35 14.17L4.32 14.17L4.32 5.62L1.35 7.84L1.35 6.3L3.82 4.45L5.67 4.45L5.67 14.17L8.1 14.17L8.1 15.4L1.35 15.4Z"/>
<path id="g80" d="M4.5 15.55Q2.98 15.55 2.09 14.67Q1.2 13.8 1.2 12.32L1.2 7.52Q1.2 6.05 2.09 5.18Q2.98 4.3 4.5 4.3Q6.01 4.3 6.91 5.18Q7.8 6.05 7.8 7.52L7.8 12.32Q7.8 13.3 7.39 14.03Q6.99 14.75 6.25 15.15Q5.51 15.55 4.5 15.55ZM4.5 14.39Q5.4 14.39 5.95 13.82Q6.49 13.24 6.49 12.32L6.49 7.52Q6.49 6.61 5.95 6.03Q5.4 5.45 4.5 5.45Q3.6 5.45 3.05 6.03Q2.5 6.61 2.5 7.52L2.5 12.32Q2.5 13.24 3.05 13.82Q3.6 14.39 4.5 14.39ZM4.5 10.75Q4.09 10.75 3.85 10.52Q3.6 10.3 3.6 9.88Q3.6 9.48 3.85 9.26Q4.09 9.04 4.5 9.04Q4.9 9.04 5.15 9.26Q5.4 9.48 5.4 9.88Q5.4 10.3 5.15 10.52Q4.9 10.75 4.5 10.75Z"/>
<path id="g81" d="M4.98 15.55Q4.05 15.55 3.45 15.09Q2.85 14.63 2.74 13.82L2.73 13.82L2.73 15.4L1.38 15.4L1.38 4.45L2.73 4.45L2.73 6.85L2.7 8.73L2.71 8.73Q2.84 7.93 3.44 7.46Q4.05 7 4.98 7Q6.22 7 6.96 7.82Q7.69 8.65 7.69 10.07L7.69 12.49Q7.69 13.9 6.96 14.72Q6.22 15.55 4.98 15.55ZM4.53 14.38Q5.38 14.38 5.86 13.93Q6.34 13.48 6.34 12.47L6.34 10.07Q6.34 9.06 5.86 8.61Q5.38 8.17 4.53 8.17Q3.7 8.17 3.22 8.69Q2.73 9.22 2.73 10.15L2.73 12.4Q2.73 13.33 3.22 13.85Q3.7 14.38 4.53 14.38Z"/>
<path id="g82" d="M4.5 14.65Q3.18 14.65 2.12 14.04Q1.06 13.43 0.46 12.38Q-0.15 11.32 -0.15 10Q-0.15 8.66 0.46 7.61Q1.06 6.56 2.12 5.96Q3.18 5.35 4.5 5.35Q5.84 5.35 6.88 5.96Q7.93 6.56 8.54 7.61Q9.15 8.66 9.15 10Q9.15 11.32 8.54 12.38Q7.93 13.43 6.88 14.04Q5.84 14.65 4.5 14.65Z"/>
<path id="g83" d="M5.73 15.4L5.73 13.22L0.88 13.22L0.88 10.51L4.93 4.45L7.02 4.45L2.68 11L2.68 11.57L5.73 11.57L5.73 9.1L7.62 9.1L7.62 15.4L5.73 15.4Z"/>
<path id="g84" d="M2.62 15.4L5.19 10.98Q5.01 11.11 4.77 11.21Q4.53 11.31 4.05 11.31Q3.15 11.31 2.41 10.87Q1.66 10.43 1.23 9.66Q0.79 8.89 0.79 7.87Q0.79 6.79 1.25 5.99Q1.71 5.18 2.54 4.74Q3.38 4.3 4.5 4.3Q5.62 4.3 6.46 4.75Q7.29 5.2 7.75 6.02Q8.2 6.84 8.2 7.93Q8.2 8.57 7.93 9.41Q7.65 10.24 7.17 11.09L4.8 15.4L2.62 15.4ZM4.5 9.81Q5.34 9.81 5.85 9.27Q6.36 8.74 6.36 7.84Q6.36 6.95 5.85 6.42Q5.34 5.89 4.5 5.89Q3.66 5.89 3.15 6.42Q2.64 6.95 2.64 7.84Q2.64 8.74 3.15 9.27Q3.66 9.81 4.5 9.81Z"/>
<path id="g85" d="M4.56 15.55Q3.49 15.55 2.71 15.15Q1.93 14.75 1.51 14.03Q1.08 13.3 1.08 12.31L1.08 7.54Q1.08 6.55 1.51 5.82Q1.93 5.1 2.71 4.7Q3.49 4.3 4.56 4.3Q5.61 4.3 6.39 4.7Q7.17 5.1 7.61 5.82Q8.04 6.55 8.04 7.54L6.15 7.54Q6.15 6.77 5.74 6.36Q5.32 5.95 4.56 5.95Q3.79 5.95 3.38 6.35Q2.95 6.76 2.95 7.52L2.95 12.31Q2.95 13.07 3.38 13.49Q3.79 13.91 4.56 13.91Q5.32 13.91 5.74 13.49Q6.15 13.07 6.15 12.31L6.15 11.09L4.29 11.09L4.29 9.48L8.04 9.48L8.04 12.31Q8.04 13.3 7.61 14.03Q7.17 14.75 6.39 15.15Q5.61 15.55 4.56 15.55Z"/>
<path id="g86" d="M1.14 15.4L1.14 13.7L3.96 13.7L3.96 8.84L1.44 8.84L1.44 7.15L5.84 7.15L5.84 13.7L8.37 13.7L8.37 15.4L1.14 15.4ZM4.77 5.77Q4.2 5.77 3.87 5.48Q3.54 5.18 3.54 4.69Q3.54 4.19 3.87 3.9Q4.2 3.61 4.77 3.61Q5.34 3.61 5.67 3.9Q6 4.19 6 4.69Q6 5.18 5.67 5.48Q5.34 5.77 4.77 5.77Z"/>
<path id="g87" d="M1.15 15.4L1.15 4.45L4.51 4.45Q6.09 4.45 7.03 5.22Q7.96 5.98 7.96 7.27Q7.96 8.17 7.45 8.81Q6.93 9.46 6.11 9.59L6.11 9.62Q6.72 9.7 7.2 10.07Q7.68 10.43 7.95 11.01Q8.22 11.59 8.22 12.28Q8.22 13.22 7.78 13.93Q7.35 14.63 6.55 15.02Q5.76 15.4 4.68 15.4L1.15 15.4ZM2.98 8.97L4.49 8.97Q5.22 8.97 5.65 8.57Q6.09 8.17 6.09 7.48Q6.09 6.8 5.66 6.41Q5.23 6.01 4.49 6.01L2.98 6.01L2.98 8.97ZM2.98 13.84L4.57 13.84Q5.4 13.84 5.87 13.4Q6.34 12.95 6.34 12.19Q6.34 11.42 5.87 10.95Q5.4 10.48 4.57 10.48L2.98 10.48L2.98 13.84Z"/>
<path id="g88" d="M1.38 15.4L1.38 4.45L4.21 4.45Q5.28 4.45 6.05 4.85Q6.82 5.26 7.25 5.99Q7.68 6.73 7.68 7.73L7.68 12.1Q7.68 13.1 7.25 13.85Q6.82 14.59 6.05 14.99Q5.28 15.4 4.21 15.4L1.38 15.4ZM2.73 14.2L4.21 14.2Q5.2 14.2 5.77 13.64Q6.33 13.09 6.33 12.1L6.33 7.73Q6.33 6.76 5.77 6.2Q5.2 5.65 4.21 5.65L2.73 5.65L2.73 14.2Z"/>
<path id="g89" d="M1.45 15.4L1.45 4.45L2.8 4.45L2.8 10.56L4.38 10.56L6.69 7.15L8.23 7.15L5.58 11.08L8.39 15.4L6.81 15.4L4.41 11.72L2.8 11.72L2.8 15.4L1.45 15.4Z"/>
<path id="g90" d="M2.37 15.4L6.38 6.1L2.88 6.1L2.88 7.88L1 7.88L1 4.45L8.4 4.45L8.4 6.1L4.42 15.4L2.37 15.4Z"/>
<path id="g91" d="M2.26 9.4Q1.25 9.4 0.66 8.85Q0.07 8.31 0.09 7.38L0.09 6.4Q0.07 5.47 0.67 4.92Q1.26 4.38 2.26 4.38Q3.25 4.38 3.85 4.92Q4.44 5.47 4.45 6.4L4.45 7.38Q4.45 8.31 3.86 8.85Q3.27 9.4 2.26 9.4ZM0 15.4L7.65 4.45L9 4.45L1.35 15.4L0 15.4ZM2.26 8.24Q2.65 8.24 2.89 8.01Q3.12 7.78 3.12 7.38L3.12 6.4Q3.12 5.99 2.89 5.76Q2.67 5.53 2.28 5.53Q1.89 5.53 1.66 5.76Q1.42 5.99 1.42 6.4L1.42 7.38Q1.42 7.78 1.65 8.01Q1.88 8.24 2.26 8.24ZM6.72 15.47Q5.73 15.47 5.14 14.93Q4.55 14.38 4.55 13.45L4.55 12.47Q4.55 11.55 5.13 11Q5.71 10.45 6.72 10.45Q7.72 10.45 8.32 11Q8.91 11.55 8.91 12.47L8.91 13.45Q8.91 14.38 8.32 14.93Q7.72 15.47 6.72 15.47ZM6.72 14.3Q7.11 14.3 7.34 14.07Q7.57 13.84 7.57 13.45L7.57 12.47Q7.57 12.07 7.34 11.84Q7.11 11.6 6.72 11.6Q6.34 11.6 6.11 11.84Q5.88 12.07 5.88 12.47L5.88 13.45Q5.86 13.84 6.1 14.07Q6.33 14.3 6.72 14.3Z"/>
<path id="g92" d="M1.61 15.4L0.3 4.45L1.54 4.45L2.4 12.55Q2.46 13.05 2.49 13.58Q2.52 14.11 2.53 14.42Q2.57 14.11 2.62 13.58Q2.67 13.05 2.73 12.55L3.81 4.45L5.26 4.45L6.25 12.55Q6.32 13.05 6.38 13.58Q6.43 14.11 6.46 14.42Q6.49 14.11 6.53 13.58Q6.57 13.05 6.63 12.55L7.51 4.45L8.7 4.45L7.36 15.4L5.67 15.4L4.68 7.15Q4.62 6.64 4.59 6.15Q4.56 5.66 4.53 5.39Q4.5 5.66 4.47 6.15Q4.44 6.64 4.36 7.15L3.3 15.4L1.61 15.4Z"/>
<path id="g93" d="M1.35 15.4L1.35 14.05L5.97 8.38L1.47 8.38L1.47 7.15L7.48 7.15L7.48 8.5L2.77 14.17L7.65 14.17L7.65 15.4L1.35 15.4Z"/>
<path id="g94" d="M2.29 9.4Q1.33 9.4 0.77 8.85Q0.21 8.31 0.22 7.38L0.22 6.4Q0.21 5.47 0.77 4.92Q1.33 4.38 2.29 4.38Q3.25 4.38 3.82 4.92Q4.38 5.47 4.39 6.4L4.39 7.38Q4.39 8.31 3.83 8.85Q3.27 9.4 2.29 9.4ZM0.21 15.4L7.68 4.45L8.79 4.45L1.32 15.4L0.21 15.4ZM2.31 8.38Q2.76 8.38 3.02 8.11Q3.28 7.84 3.28 7.38L3.28 6.4Q3.28 5.93 3.02 5.66Q2.76 5.39 2.31 5.39Q1.86 5.39 1.6 5.66Q1.33 5.93 1.33 6.4L1.33 7.38Q1.33 7.84 1.6 8.11Q1.86 8.38 2.31 8.38ZM6.69 15.47Q5.73 15.47 5.17 14.93Q4.61 14.38 4.61 13.45L4.61 12.47Q4.59 11.55 5.16 11Q5.73 10.45 6.69 10.45Q7.65 10.45 8.21 11Q8.77 11.55 8.77 12.47L8.77 13.45Q8.77 14.38 8.21 14.93Q7.65 15.47 6.69 15.47ZM6.69 14.44Q7.14 14.44 7.4 14.18Q7.66 13.91 7.66 13.45L7.66 12.47Q7.66 12.01 7.4 11.74Q7.14 11.47 6.67 11.47Q6.24 11.47 5.98 11.74Q5.71 12.01 5.71 12.47L5.71 13.45Q5.7 13.91 5.96 14.18Q6.22 14.44 6.69 14.44Z"/>
<path id="g95" d="M7.35 15.55Q7.02 15.55 6.81 15.32Q6.6 15.1 6.6 14.72L6.6 13.67Q6.6 13.3 6.81 13.07Q7.02 12.85 7.35 12.85Q7.69 12.85 7.9 13.07Q8.1 13.3 8.1 13.67L8.1 14.72Q8.1 15.1 7.9 15.32Q7.69 15.55 7.35 15.55ZM1.65 15.55Q1.32 15.55 1.11 15.32Q0.9 15.1 0.9 14.72L0.9 13.67Q0.9 13.3 1.11 13.07Q1.32 12.85 1.65 12.85Q2 12.85 2.2 13.07Q2.4 13.3 2.4 13.67L2.4 14.72Q2.4 15.1 2.2 15.32Q2 15.55 1.65 15.55ZM4.5 15.55Q4.17 15.55 3.96 15.32Q3.75 15.1 3.75 14.72L3.75 13.67Q3.75 13.3 3.96 13.07Q4.17 12.85 4.5 12.85Q4.84 12.85 5.05 13.07Q5.25 13.3 5.25 13.67L5.25 14.72Q5.25 15.1 5.05 15.32Q4.84 15.55 4.5 15.55Z"/>
<path id="g96" d="M3.57 15.4L0.75 4.45L2.13 4.45L4.01 11.9Q4.2 12.68 4.33 13.34Q4.45 14 4.51 14.35Q4.57 14 4.72 13.34Q4.86 12.67 5.05 11.89L6.86 4.45L8.25 4.45L5.41 15.4L3.57 15.4Z"/>
<path id="g97" d="M4.44 15.55Q2.84 15.55 1.88 14.7Q0.93 13.85 0.93 12.4L2.8 12.4Q2.8 13.09 3.25 13.5Q3.69 13.91 4.45 13.91Q5.22 13.91 5.65 13.5Q6.07 13.09 6.07 12.35L6.07 11.64Q6.07 10.9 5.65 10.49Q5.23 10.07 4.47 10.07L1.3 10.07L1.3 4.45L7.54 4.45L7.54 6.14L3.08 6.14L3.09 8.42L4.56 8.42Q6.18 8.42 7.07 9.26Q7.95 10.1 7.95 11.64L7.95 12.35Q7.95 13.84 7.01 14.69Q6.07 15.55 4.44 15.55Z"/>
<path id="g98" d="M4.5 14.5Q2.64 14.5 1.32 13.18Q0 11.86 0 10Q0 8.14 1.32 6.82Q2.64 5.5 4.5 5.5Q6.36 5.5 7.68 6.82Q9 8.14 8.98 10Q8.98 11.86 7.68 13.18Q6.36 14.5 4.5 14.5ZM6.48 9.17L6.48 9.17Q6.6 9.06 6.6 8.88Q6.6 8.71 6.48 8.57Q6.36 8.45 6.18 8.44Q6.01 8.44 5.88 8.57L3.93 10.54L3.11 9.7Q2.98 9.58 2.8 9.58Q2.64 9.58 2.52 9.7Q2.4 9.82 2.38 10Q2.38 10.16 2.52 10.3L3.63 11.42Q3.75 11.55 3.93 11.55Q4.09 11.55 4.23 11.42L6.48 9.17Z"/>
<path id="g99" d="M1.08 15.4L1.08 4.45L3.38 4.45L6.42 13.3Q6.38 12.82 6.33 12.17Q6.28 11.51 6.25 10.84Q6.21 10.16 6.21 9.64L6.21 4.45L7.92 4.45L7.92 15.4L5.62 15.4L2.61 6.55Q2.64 6.98 2.68 7.6Q2.73 8.22 2.76 8.86Q2.79 9.5 2.79 10.05L2.79 15.4L1.08 15.4Z"/>
<path id="g100" d="M5.84 15.4Q4.61 15.4 3.86 14.66Q3.12 13.93 3.12 12.73L3.12 6.14L0.41 6.14L0.41 4.45L4.99 4.45L4.99 12.68Q4.99 13.15 5.26 13.43Q5.52 13.7 5.97 13.7L8.39 13.7L8.39 15.4L5.84 15.4Z"/>
<path id="g101" d="M8.53 9.92L5.97 7.69Q5.76 7.49 5.6 7.27Q5.44 7.05 5.4 6.89L5.4 15.4L3.62 15.4L3.62 6.93Q3.57 7.07 3.43 7.29Q3.28 7.51 3.08 7.69L0.47 9.98L0.47 7.81L4.49 4.3L8.53 7.79L8.53 9.92Z"/>
<path id="g102" d="M8.53 9.92L8.53 12.05L4.49 15.55L0.47 12.04L0.47 9.86L3.08 12.16Q3.28 12.34 3.43 12.56Q3.57 12.77 3.62 12.92L3.62 4.45L5.4 4.45L5.4 12.95Q5.44 12.8 5.6 12.58Q5.76 12.35 5.97 12.16L8.53 9.92Z"/>
<path id="g103" d="M0.9 17.05L6.15 2.95L8.1 2.95L2.85 17.05L0.9 17.05Z"/>
<path id="g104" d="M4.63 15.55Q3.57 15.55 2.78 15.15Q2 14.75 1.56 14.03Q1.12 13.3 1.12 12.31L1.12 10.24Q1.12 9.25 1.56 8.52Q2 7.79 2.78 7.4Q3.57 7 4.63 7Q6.18 7 7.12 7.8Q8.05 8.6 8.1 9.98L6.25 9.98Q6.21 9.34 5.77 8.99Q5.32 8.64 4.63 8.64Q3.87 8.64 3.43 9.05Q3 9.46 3 10.23L3 12.31Q3 13.07 3.43 13.49Q3.87 13.91 4.63 13.91Q5.34 13.91 5.78 13.56Q6.21 13.21 6.25 12.56L8.1 12.56Q8.05 13.94 7.12 14.75Q6.18 15.55 4.63 15.55Z"/>
<path id="g105" d="M6.27 18.1L6.27 15.7L6.3 13.82L6.25 13.82Q6.15 14.62 5.55 15.09Q4.95 15.55 4.02 15.55Q2.77 15.55 2.04 14.72Q1.3 13.9 1.3 12.47L1.3 10.06Q1.3 8.64 2.05 7.82Q2.79 7 4.02 7Q4.95 7 5.55 7.46Q6.15 7.91 6.25 8.73L6.27 8.73L6.27 7.15L7.62 7.15L7.62 18.1L6.27 18.1ZM4.47 14.38Q5.31 14.38 5.79 13.85Q6.27 13.33 6.27 12.4L6.27 10.15Q6.27 9.22 5.79 8.69Q5.31 8.17 4.47 8.17Q3.62 8.17 3.13 8.6Q2.65 9.04 2.65 10L2.65 12.55Q2.65 13.51 3.13 13.94Q3.62 14.38 4.47 14.38Z"/>
</defs>
<rect width="1112" height="784" rx="10" fill="#111a26"/>
<path fill="#1a232f" d="M0 10A10 10 0 0 1 10 0H1102A10 10 0 0 1 1112 10V32H0Z"/>
<path fill="#192637" d="M502 48h162v20h-162zM754 48h126v20h-126zM943 48h135v20h-135zM25 88h261v20h-261zM277 128h9v20h-9zM277 148h9v20h-9zM277 168h9v20h-9zM277 188h9v20h-9zM925 188h99v20h-99zM277 208h9v20h-9zM277 228h9v20h-9zM277 248h9v20h-9zM457 248h126v20h-126zM277 268h9v20h-9zM277 288h9v20h-9zM277 308h9v20h-9zM277 328h9v20h-9zM277 348h9v20h-9zM851.88 348h1.12v20h-1.12zM853 348h9v20h-9zM277 368h9v20h-9zM917.12 368h7.88v20h-7.88zM277 388h9v20h-9zM826 388h54v20h-54zM277 408h9v20h-9zM277 428h9v20h-9zM277 448h9v20h-9zM277 468h9v20h-9zM277 488h9v20h-9zM277 508h9v20h-9zM277 528h9v20h-9zM277 548h9v20h-9zM1060 568h9v20h-9zM1060 588h9v20h-9zM1060 608h9v20h-9zM1060 628h9v20h-9zM1060 648h9v20h-9zM1060 668h9v20h-9zM1060 688h9v20h-9zM1060 708h9v20h-9zM34 748h36v20h-36zM142 748h27v20h-27zM259 748h45v20h-45zM376 748h45v20h-45zM493 748h72v20h-72zM835 748h45v20h-45zM961 748h72v20h-72z"/>
<path fill="#0b1118" d="M286 68h810v20h-810zM286 88h810v20h-810zM286 108h810v20h-810zM286 128h27v20h-27zM412 128h684v20h-684zM286 148h810v20h-810zM286 168h27v20h-27zM1051 168h9v20h-9zM1069 168h27v20h-27zM286 188h27v20h-27zM1051 188h9v20h-9zM1069 188h27v20h-27zM286 208h27v20h-27zM1051 208h9v20h-9zM1069 208h27v20h-27zM286 228h27v20h-27zM1051 228h9v20h-9zM1069 228h27v20h-27zM286 248h27v20h-27zM1051 248h9v20h-9zM1069 248h27v20h-27zM286 268h27v20h-27zM1051 268h9v20h-9zM1069 268h27v20h-27zM286 288h27v20h-27zM673 288h18v20h-18zM1051 288h9v20h-9zM1069 288h27v20h-27zM286 308h27v20h-27zM673 308h18v20h-18zM1051 308h9v20h-9zM1069 308h27v20h-27zM286 328h27v20h-27zM673 328h18v20h-18zM1051 328h9v20h-9zM1069 328h27v20h-27zM286 348h27v20h-27zM673 348h18v20h-18zM1051 348h9v20h-9zM1069 348h27v20h-27zM286 368h27v20h-27zM673 368h18v20h-18zM1051 368h9v20h-9zM1069 368h27v20h-27zM286 388h27v20h-27zM673 388h18v20h-18zM1051 388h9v20h-9zM1069 388h27v20h-27zM286 408h27v20h-27zM673 408h18v20h-18zM1051 408h9v20h-9zM1069 408h27v20h-27zM286 428h27v20h-27zM673 428h18v20h-18zM1051 428h9v20h-9zM1069 428h27v20h-27zM286 448h27v20h-27zM673 448h18v20h-18zM1051 448h9v20h-9zM1069 448h27v20h-27zM286 468h27v20h-27zM673 468h18v20h-18zM1051 468h9v20h-9zM1069 468h27v20h-27zM286 488h27v20h-27zM673 488h18v20h-18zM1051 488h9v20h-9zM1069 488h27v20h-27zM286 508h27v20h-27zM673 508h18v20h-18zM1051 508h9v20h-9zM1069 508h27v20h-27zM286 528h27v20h-27zM673 528h18v20h-18zM1051 528h9v20h-9zM1069 528h27v20h-27zM286 548h27v20h-27zM673 548h18v20h-18zM1051 548h9v20h-9zM1069 548h27v20h-27zM286 568h27v20h-27zM673 568h18v20h-18zM1051 568h9v20h-9zM1069 568h27v20h-27zM286 588h27v20h-27zM673 588h18v20h-18zM1051 588h9v20h-9zM1069 588h27v20h-27zM286 608h27v20h-27zM673 608h18v20h-18zM1051 608h9v20h-9zM1069 608h27v20h-27zM286 628h27v20h-27zM673 628h18v20h-18zM1051 628h9v20h-9zM1069 628h27v20h-27zM286 648h27v20h-27zM673 648h18v20h-18zM1051 648h9v20h-9zM1069 648h27v20h-27zM286 668h27v20h-27zM673 668h18v20h-18zM1051 668h9v20h-9zM1069 668h27v20h-27zM286 688h27v20h-27zM673 688h18v20h-18zM1051 688h9v20h-9zM1069 688h27v20h-27zM286 708h27v20h-27zM673 708h18v20h-18zM1051 708h9v20h-9zM1069 708h27v20h-27zM286 728h810v20h-810z"/>
<path fill="#3294c4" d="M313 128h4.5v20h-4.5z"/>
<path fill="#23344b" d="M317.5 128h4.5v20h-4.5zM322 128h90v20h-90zM889 188h36v20h-36zM583 248h36v20h-36zM29.5 728h4.5v20h-4.5zM34 728h243v20h-243z"/>
<path fill="#4f7a96" d="M1060 168h9v20h-9zM1060 188h9v20h-9zM1060 208h9v20h-9zM1060 228h9v20h-9zM1060 248h9v20h-9zM1060 268h9v20h-9zM1060 288h9v20h-9zM1060 308h9v20h-9zM1060 328h9v20h-9zM1060 348h9v20h-9zM610 383h9v5h-9zM1060 368h9v20h-9zM610 388h9v20h-9zM1060 388h9v20h-9zM1060 408h9v20h-9zM1060 428h9v20h-9zM1060 448h9v20h-9zM1060 468h9v20h-9zM1060 488h9v20h-9zM1060 508h9v20h-9zM1060 528h9v20h-9zM1060 548h9v20h-9zM277 568h9v20h-9zM277 588h9v20h-9zM277 608h9v20h-9zM277 628h9v20h-9zM277 648h9v20h-9zM277 668h9v20h-9zM277 688h9v20h-9zM277 708h9v20h-9zM277 728h9v20h-9z"/>
<path fill="#38bdf8" d="M700 218h9v10h-9zM709 208h9v20h-9zM736 208h9v20h-9zM745 208h9v10h-9zM754 208h9v10h-9zM772 218h9v10h-9zM790 208h9v20h-9zM799 208h9v10h-9zM808 208h9v20h-9zM826 208h9v10h-9zM835 208h9v10h-9zM844 208h9v20h-9zM709 228h9v20h-9zM736 228h9v20h-9zM745 228h9v10h-9zM754 228h9v20h-9zM772 238h9v10h-9zM790 228h9v20h-9zM808 228h9v20h-9zM826 228h9v20h-9zM835 228h9v10h-9zM844 228h9v10h-9zM700 248h9v10h-9zM709 248h9v10h-9zM718 248h9v10h-9zM736 248h9v10h-9zM745 248h9v10h-9zM754 248h9v10h-9zM790 248h9v10h-9zM799 248h9v10h-9zM808 248h9v10h-9zM826 248h9v10h-9zM835 248h9v10h-9zM844 248h9v10h-9zM520 360.5h9v7.5h-9zM520 368h9v20h-9zM520 388h9v20h-9zM466 528h63v20h-63zM529 528h5.62v20h-5.62zM466 568h36v20h-36zM502 568h7.88v20h-7.88zM466 608h45v20h-45zM511 608h2.25v20h-2.25zM466 688h63v20h-63zM529 688h2.25v20h-2.25z"/>
<path fill="#223939" d="M340 248h99v20h-99z"/>
<path fill="#55363f" d="M637 248h27v20h-27z"/>
<path fill="#162e3f" d="M340 348h45v20h-45zM385 348h9v17.5h-9zM394 348h9v17.5h-9zM403 348h9v15h-9zM412 348h9v17.5h-9zM421 348h54v20h-54zM475 348h9v17.5h-9zM484 348h9v17.5h-9zM493 348h9v17.5h-9zM502 348h9v12.5h-9zM511 348h9v15h-9zM520 348h9v12.5h-9zM529 348h9v15h-9zM538 348h108v20h-108z"/>
<path fill="#2d8fbd" d="M385 365.5h9v2.5h-9zM394 365.5h9v2.5h-9zM403 363h9v5h-9zM412 365.5h9v2.5h-9zM475 365.5h9v2.5h-9zM484 365.5h9v2.5h-9zM493 365.5h9v2.5h-9zM502 360.5h9v7.5h-9zM511 363h9v5h-9zM529 363h9v5h-9zM340 383h9v5h-9zM349 380.5h9v7.5h-9zM358 373h9v15h-9zM367 373h9v15h-9zM376 370.5h9v17.5h-9zM385 368h54v20h-54zM439 370.5h9v17.5h-9zM448 373h9v15h-9zM457 370.5h9v17.5h-9zM466 370.5h9v17.5h-9zM475 368h45v20h-45zM529 368h27v20h-27zM556 373h9v15h-9zM565 378h9v10h-9zM574 378h9v10h-9zM583 380.5h9v7.5h-9zM592 380.5h9v7.5h-9zM601 380.5h9v7.5h-9zM619 378h9v10h-9zM628 380.5h9v7.5h-9zM637 380.5h9v7.5h-9zM340 388h180v20h-180zM529 388h81v20h-81zM619 388h27v20h-27z"/>
<path fill="#7ddc9b" d="M808 348h36v20h-36zM844 348h7.88v20h-7.88zM808 368h108v20h-108zM916 368h1.12v20h-1.12zM808 388h18v20h-18z"/>
<path fill="#383c3e" d="M862 348h9v20h-9zM925 368h18v20h-18zM880 388h45v20h-45z"/>
<path fill="#443644" d="M871 348h9v20h-9zM943 368h18v20h-18zM925 388h36v20h-36z"/>
<path fill="#f2777a" d="M466 648h90v20h-90zM556 648h1.12v20h-1.12z"/>
<path fill="#4dc4f9" d="M25 728h4.5v20h-4.5z"/>
<g fill="#38bdf8"><use href="#g0" x="34" y="48"/><use href="#g1" x="43" y="48"/><use href="#g2" x="52" y="48"/><use href="#g3" x="61" y="48"/><use href="#g4" x="70" y="48"/><use href="#g5" x="79" y="48"/><use href="#g51" x="331" y="128"/></g>
<g fill="#4f7a96"><use href="#g6" x="106" y="48"/><use href="#g7" x="115" y="48"/><use href="#g8" x="124" y="48"/><use href="#g9" x="133" y="48"/><use href="#g10" x="142" y="48"/><use href="#g11" x="151" y="48"/><use href="#g6" x="160" y="48"/><use href="#g12" x="169" y="48"/><use href="#g13" x="448" y="48"/><use href="#g7" x="457" y="48"/><use href="#g12" x="466" y="48"/><use href="#g14" x="475" y="48"/><use href="#g12" x="484" y="48"/><use href="#g19" x="637" y="48"/><use href="#g20" x="673" y="48"/><use href="#g11" x="682" y="48"/><use href="#g21" x="691" y="48"/><use href="#g22" x="700" y="48"/><use href="#g23" x="709" y="48"/><use href="#g11" x="718" y="48"/><use href="#g22" x="727" y="48"/><use href="#g12" x="736" y="48"/><use href="#g19" x="853" y="48"/><use href="#g18" x="889" y="48"/><use href="#g10" x="898" y="48"/><use href="#g8" x="907" y="48"/><use href="#g21" x="916" y="48"/><use href="#g6" x="925" y="48"/><use href="#g19" x="1051" y="48"/><use href="#g26" x="43" y="88"/><use href="#g6" x="61" y="88"/><use href="#g12" x="70" y="88"/><use href="#g11" x="79" y="88"/><use href="#g16" x="88" y="88"/><use href="#g10" x="97" y="88"/><use href="#g7" x="106" y="88"/><use href="#g10" x="124" y="88"/><use href="#g8" x="133" y="88"/><use href="#g14" x="142" y="88"/><use href="#g27" x="151" y="88"/><use href="#g8" x="160" y="88"/><use href="#g21" x="169" y="88"/><use href="#g12" x="178" y="88"/><use href="#g21" x="187" y="88"/><use href="#g13" x="196" y="88"/><use href="#g6" x="205" y="88"/><use href="#g24" x="889" y="88"/><use href="#g38" x="898" y="88"/><use href="#g25" x="907" y="88"/><use href="#g39" x="916" y="88"/><use href="#g40" x="925" y="88"/><use href="#g41" x="934" y="88"/><use href="#g24" x="943" y="88"/><use href="#g25" x="961" y="88"/><use href="#g40" x="970" y="88"/><use href="#g40" x="979" y="88"/><use href="#g42" x="988" y="88"/><use href="#g43" x="1006" y="88"/><use href="#g44" x="1024" y="88"/><use href="#g45" x="1042" y="88"/><use href="#g44" x="1060" y="88"/><use href="#g48" x="430" y="128"/><use href="#g49" x="448" y="128"/><use href="#g8" x="457" y="128"/><use href="#g17" x="466" y="128"/><use href="#g12" x="475" y="128"/><use href="#g44" x="538" y="128"/><use href="#g54" x="556" y="128"/><use href="#g23" x="565" y="128"/><use href="#g18" x="574" y="128"/><use href="#g17" x="583" y="128"/><use href="#g12" x="592" y="128"/><use href="#g55" x="655" y="128"/><use href="#g56" x="673" y="128"/><use href="#g12" x="682" y="128"/><use href="#g50" x="691" y="128"/><use href="#g12" x="700" y="128"/><use href="#g16" x="709" y="128"/><use href="#g12" x="718" y="128"/><use href="#g21" x="727" y="128"/><use href="#g10" x="736" y="128"/><use href="#g12" x="745" y="128"/><use href="#g49" x="340" y="188"/><use href="#g60" x="349" y="188"/><use href="#g15" x="358" y="188"/><use href="#g61" x="367" y="188"/><use href="#g25" x="376" y="188"/><use href="#g62" x="385" y="188"/><use href="#g15" x="394" y="188"/><use href="#g24" x="403" y="188"/><use href="#g56" x="412" y="188"/><use href="#g63" x="430" y="188"/><use href="#g60" x="439" y="188"/><use href="#g42" x="448" y="188"/><use href="#g61" x="457" y="188"/><use href="#g64" x="466" y="188"/><use href="#g24" x="484" y="188"/><use href="#g65" x="493" y="188"/><use href="#g66" x="502" y="188"/><use href="#g49" x="511" y="188"/><use href="#g24" x="520" y="188"/><use href="#g15" x="529" y="188"/><use href="#g61" x="538" y="188"/><use href="#g56" x="547" y="188"/><use href="#g25" x="556" y="188"/><use href="#g41" x="565" y="188"/><use href="#g41" x="700" y="188"/><use href="#g60" x="709" y="188"/><use href="#g49" x="718" y="188"/><use href="#g25" x="727" y="188"/><use href="#g41" x="736" y="188"/><use href="#g61" x="754" y="188"/><use href="#g62" x="763" y="188"/><use href="#g39" x="772" y="188"/><use href="#g24" x="781" y="188"/><use href="#g76" x="466" y="248"/><use href="#g49" x="340" y="308"/><use href="#g40" x="349" y="308"/><use href="#g65" x="358" y="308"/><use href="#g64" x="367" y="308"/><use href="#g41" x="385" y="308"/><use href="#g25" x="394" y="308"/><use href="#g42" x="403" y="308"/><use href="#g61" x="412" y="308"/><use href="#g69" x="430" y="308"/><use href="#g55" x="439" y="308"/><use href="#g42" x="457" y="308"/><use href="#g25" x="466" y="308"/><use href="#g39" x="475" y="308"/><use href="#g40" x="484" y="308"/><use href="#g41" x="493" y="308"/><use href="#g24" x="502" y="308"/><use href="#g42" x="511" y="308"/><use href="#g56" x="718" y="308"/><use href="#g24" x="727" y="308"/><use href="#g42" x="736" y="308"/><use href="#g60" x="745" y="308"/><use href="#g65" x="754" y="308"/><use href="#g56" x="763" y="308"/><use href="#g49" x="772" y="308"/><use href="#g24" x="781" y="308"/><use href="#g42" x="790" y="308"/><use href="#g69" x="43" y="328"/><use href="#g58" x="70" y="328"/><use href="#g60" x="79" y="328"/><use href="#g56" x="88" y="328"/><use href="#g39" x="97" y="328"/><use href="#g42" x="106" y="328"/><use href="#g49" x="340" y="488"/><use href="#g40" x="349" y="488"/><use href="#g65" x="358" y="488"/><use href="#g40" x="376" y="488"/><use href="#g24" x="385" y="488"/><use href="#g56" x="394" y="488"/><use href="#g42" x="412" y="488"/><use href="#g24" x="421" y="488"/><use href="#g56" x="430" y="488"/><use href="#g96" x="439" y="488"/><use href="#g62" x="448" y="488"/><use href="#g49" x="457" y="488"/><use href="#g24" x="466" y="488"/><use href="#g25" x="718" y="488"/><use href="#g41" x="727" y="488"/><use href="#g24" x="736" y="488"/><use href="#g56" x="745" y="488"/><use href="#g61" x="754" y="488"/><use href="#g42" x="763" y="488"/><use href="#g73" x="43" y="548"/><use href="#g49" x="70" y="548"/><use href="#g60" x="79" y="548"/><use href="#g15" x="88" y="548"/><use href="#g61" x="97" y="548"/><use href="#g24" x="106" y="548"/><use href="#g15" x="115" y="548"/><use href="#g61" x="124" y="548"/><use href="#g98" x="862" y="568"/><use href="#g74" x="43" y="668"/><use href="#g24" x="70" y="668"/><use href="#g38" x="79" y="668"/><use href="#g25" x="88" y="668"/><use href="#g39" x="97" y="668"/><use href="#g40" x="106" y="668"/><use href="#g41" x="115" y="668"/><use href="#g24" x="124" y="668"/><use href="#g25" x="142" y="668"/><use href="#g40" x="151" y="668"/><use href="#g40" x="160" y="668"/><use href="#g42" x="169" y="668"/><use href="#g14" x="79" y="748"/><use href="#g8" x="88" y="748"/><use href="#g57" x="97" y="748"/><use href="#g12" x="106" y="748"/><use href="#g6" x="178" y="748"/><use href="#g12" x="187" y="748"/><use href="#g11" x="196" y="748"/><use href="#g16" x="205" y="748"/><use href="#g10" x="214" y="748"/><use href="#g7" x="223" y="748"/><use href="#g81" x="313" y="748"/><use href="#g11" x="322" y="748"/><use href="#g10" x="331" y="748"/><use href="#g89" x="340" y="748"/><use href="#g21" x="430" y="748"/><use href="#g12" x="439" y="748"/><use href="#g59" x="448" y="748"/><use href="#g13" x="457" y="748"/><use href="#g14" x="574" y="748"/><use href="#g12" x="583" y="748"/><use href="#g21" x="592" y="748"/><use href="#g23" x="601" y="748"/><use href="#g17" x="889" y="748"/><use href="#g12" x="898" y="748"/><use href="#g81" x="907" y="748"/><use href="#g23" x="916" y="748"/><use href="#g22" x="925" y="748"/><use href="#g105" x="1042" y="748"/><use href="#g23" x="1051" y="748"/><use href="#g18" x="1060" y="748"/><use href="#g13" x="1069" y="748"/><use href="#g105" x="529" y="6"/><use href="#g50" x="538" y="6"/><use href="#g16" x="547" y="6"/><use href="#g11" x="556" y="6"/><use href="#g14" x="565" y="6"/><use href="#g12" x="574" y="6"/></g>
<g fill="#f0f9ff"><use href="#g15" x="520" y="48"/><use href="#g8" x="529" y="48"/><use href="#g16" x="538" y="48"/><use href="#g17" x="547" y="48"/><use href="#g18" x="556" y="48"/><use href="#g10" x="565" y="48"/><use href="#g24" x="772" y="48"/><use href="#g21" x="781" y="48"/><use href="#g22" x="790" y="48"/><use href="#g20" x="799" y="48"/><use href="#g18" x="808" y="48"/><use href="#g6" x="817" y="48"/><use href="#g7" x="826" y="48"/><use href="#g25" x="961" y="48"/><use href="#g23" x="970" y="48"/><use href="#g13" x="979" y="48"/><use href="#g8" x="988" y="48"/><use href="#g28" x="313" y="88"/><use href="#g29" x="322" y="88"/><use href="#g30" x="331" y="88"/><use href="#g31" x="358" y="88"/><use href="#g5" x="367" y="88"/><use href="#g32" x="376" y="88"/><use href="#g33" x="385" y="88"/><use href="#g34" x="394" y="88"/><use href="#g35" x="403" y="88"/><use href="#g5" x="412" y="88"/><use href="#g36" x="421" y="88"/><use href="#g37" x="430" y="88"/><use href="#g31" x="349" y="128"/><use href="#g52" x="358" y="128"/><use href="#g53" x="367" y="128"/><use href="#g35" x="376" y="128"/><use href="#g52" x="340" y="208"/><use href="#g37" x="349" y="208"/><use href="#g70" x="358" y="208"/><use href="#g52" x="367" y="208"/><use href="#g71" x="376" y="208"/><use href="#g72" x="385" y="208"/><use href="#g51" x="394" y="208"/><use href="#g51" x="592" y="248"/><use href="#g77" x="601" y="248"/><use href="#g83" x="340" y="428"/><use href="#g77" x="349" y="428"/><use href="#g91" x="358" y="428"/><use href="#g97" x="619" y="528"/><use href="#g83" x="628" y="528"/><use href="#g91" x="637" y="528"/><use href="#g30" x="619" y="568"/><use href="#g97" x="628" y="568"/><use href="#g91" x="637" y="568"/><use href="#g30" x="619" y="608"/><use href="#g28" x="628" y="608"/><use href="#g91" x="637" y="608"/><use href="#g99" x="826" y="608"/><use href="#g35" x="835" y="608"/><use href="#g5" x="853" y="608"/><use href="#g100" x="862" y="608"/><use href="#g52" x="871" y="608"/><use href="#g36" x="880" y="608"/><use href="#g4" x="889" y="608"/><use href="#g32" x="898" y="608"/><use href="#g97" x="619" y="688"/><use href="#g77" x="628" y="688"/><use href="#g91" x="637" y="688"/><use href="#g28" x="52" y="728"/><use href="#g29" x="61" y="728"/><use href="#g30" x="70" y="728"/><use href="#g31" x="97" y="728"/><use href="#g5" x="106" y="728"/><use href="#g32" x="115" y="728"/><use href="#g33" x="124" y="728"/><use href="#g34" x="133" y="728"/><use href="#g35" x="142" y="728"/><use href="#g5" x="151" y="728"/><use href="#g36" x="160" y="728"/><use href="#g37" x="169" y="728"/><use href="#g101" x="43" y="748"/><use href="#g102" x="52" y="748"/><use href="#g103" x="151" y="748"/><use href="#g52" x="268" y="748"/><use href="#g32" x="277" y="748"/><use href="#g104" x="286" y="748"/><use href="#g4" x="385" y="748"/><use href="#g5" x="394" y="748"/><use href="#g34" x="403" y="748"/><use href="#g104" x="502" y="748"/><use href="#g4" x="511" y="748"/><use href="#g36" x="520" y="748"/><use href="#g100" x="529" y="748"/><use href="#g34" x="547" y="748"/><use href="#g68" x="844" y="748"/><use href="#g51" x="853" y="748"/><use href="#g77" x="862" y="748"/><use href="#g104" x="970" y="748"/><use href="#g4" x="979" y="748"/><use href="#g36" x="988" y="748"/><use href="#g100" x="997" y="748"/><use href="#g0" x="1015" y="748"/></g>
<g fill="#93c5e0"><use href="#g46" x="43" y="128"/><use href="#g47" x="52" y="128"/><use href="#g48" x="61" y="128"/><use href="#g49" x="97" y="128"/><use href="#g8" x="106" y="128"/><use href="#g21" x="115" y="128"/><use href="#g50" x="124" y="128"/><use href="#g18" x="133" y="128"/><use href="#g16" x="142" y="128"/><use href="#g14" x="151" y="128"/><use href="#g11" x="160" y="128"/><use href="#g13" x="169" y="128"/><use href="#g18" x="178" y="128"/><use href="#g8" x="187" y="128"/><use href="#g21" x="196" y="128"/><use href="#g46" x="43" y="148"/><use href="#g47" x="52" y="148"/><use href="#g44" x="61" y="148"/><use href="#g40" x="97" y="148"/><use href="#g8" x="106" y="148"/><use href="#g27" x="115" y="148"/><use href="#g8" x="124" y="148"/><use href="#g57" x="133" y="148"/><use href="#g12" x="142" y="148"/><use href="#g16" x="151" y="148"/><use href="#g46" x="43" y="168"/><use href="#g47" x="52" y="168"/><use href="#g55" x="61" y="168"/><use href="#g58" x="97" y="168"/><use href="#g20" x="106" y="168"/><use href="#g8" x="115" y="168"/><use href="#g11" x="124" y="168"/><use href="#g13" x="133" y="168"/><use href="#g18" x="142" y="168"/><use href="#g21" x="151" y="168"/><use href="#g22" x="160" y="168"/><use href="#g6" x="178" y="168"/><use href="#g23" x="187" y="168"/><use href="#g16" x="196" y="168"/><use href="#g50" x="205" y="168"/><use href="#g11" x="214" y="168"/><use href="#g10" x="223" y="168"/><use href="#g12" x="232" y="168"/><use href="#g6" x="241" y="168"/><use href="#g46" x="43" y="188"/><use href="#g47" x="52" y="188"/><use href="#g46" x="61" y="188"/><use href="#g49" x="97" y="188"/><use href="#g8" x="106" y="188"/><use href="#g21" x="115" y="188"/><use href="#g13" x="124" y="188"/><use href="#g12" x="133" y="188"/><use href="#g59" x="142" y="188"/><use href="#g13" x="151" y="188"/><use href="#g14" x="169" y="188"/><use href="#g12" x="178" y="188"/><use href="#g21" x="187" y="188"/><use href="#g23" x="196" y="188"/><use href="#g16" x="907" y="188"/><use href="#g67" x="943" y="188"/><use href="#g52" x="952" y="188"/><use href="#g68" x="961" y="188"/><use href="#g36" x="970" y="188"/><use href="#g52" x="979" y="188"/><use href="#g32" x="988" y="188"/><use href="#g33" x="997" y="188"/><use href="#g46" x="43" y="208"/><use href="#g47" x="52" y="208"/><use href="#g69" x="61" y="208"/><use href="#g61" x="97" y="208"/><use href="#g8" x="106" y="208"/><use href="#g11" x="115" y="208"/><use href="#g6" x="124" y="208"/><use href="#g13" x="133" y="208"/><use href="#g46" x="43" y="228"/><use href="#g47" x="52" y="228"/><use href="#g73" x="61" y="228"/><use href="#g61" x="97" y="228"/><use href="#g8" x="106" y="228"/><use href="#g8" x="115" y="228"/><use href="#g20" x="124" y="228"/><use href="#g13" x="133" y="228"/><use href="#g18" x="142" y="228"/><use href="#g27" x="151" y="228"/><use href="#g46" x="43" y="248"/><use href="#g47" x="52" y="248"/><use href="#g74" x="61" y="248"/><use href="#g63" x="97" y="248"/><use href="#g12" x="106" y="248"/><use href="#g20" x="115" y="248"/><use href="#g27" x="124" y="248"/><use href="#g20" x="142" y="248"/><use href="#g11" x="151" y="248"/><use href="#g75" x="160" y="248"/><use href="#g12" x="169" y="248"/><use href="#g16" x="178" y="248"/><use href="#g49" x="484" y="248"/><use href="#g8" x="493" y="248"/><use href="#g21" x="502" y="248"/><use href="#g13" x="511" y="248"/><use href="#g11" x="520" y="248"/><use href="#g18" x="529" y="248"/><use href="#g21" x="538" y="248"/><use href="#g12" x="547" y="248"/><use href="#g16" x="556" y="248"/><use href="#g6" x="565" y="248"/><use href="#g46" x="43" y="268"/><use href="#g47" x="52" y="268"/><use href="#g78" x="61" y="268"/><use href="#g49" x="97" y="268"/><use href="#g8" x="106" y="268"/><use href="#g14" x="115" y="268"/><use href="#g14" x="124" y="268"/><use href="#g11" x="133" y="268"/><use href="#g21" x="142" y="268"/><use href="#g17" x="151" y="268"/><use href="#g27" x="169" y="268"/><use href="#g11" x="178" y="268"/><use href="#g20" x="187" y="268"/><use href="#g12" x="196" y="268"/><use href="#g13" x="205" y="268"/><use href="#g13" x="214" y="268"/><use href="#g12" x="223" y="268"/><use href="#g46" x="43" y="288"/><use href="#g47" x="52" y="288"/><use href="#g79" x="61" y="288"/><use href="#g80" x="70" y="288"/><use href="#g63" x="97" y="288"/><use href="#g8" x="106" y="288"/><use href="#g20" x="115" y="288"/><use href="#g17" x="124" y="288"/><use href="#g13" x="142" y="288"/><use href="#g8" x="151" y="288"/><use href="#g10" x="169" y="288"/><use href="#g8" x="178" y="288"/><use href="#g21" x="187" y="288"/><use href="#g50" x="196" y="288"/><use href="#g18" x="205" y="288"/><use href="#g16" x="214" y="288"/><use href="#g14" x="223" y="288"/><use href="#g69" x="43" y="348"/><use href="#g47" x="52" y="348"/><use href="#g79" x="61" y="348"/><use href="#g15" x="88" y="348"/><use href="#g23" x="97" y="348"/><use href="#g14" x="106" y="348"/><use href="#g81" x="115" y="348"/><use href="#g12" x="124" y="348"/><use href="#g16" x="133" y="348"/><use href="#g18" x="151" y="348"/><use href="#g21" x="160" y="348"/><use href="#g27" x="169" y="348"/><use href="#g23" x="178" y="348"/><use href="#g13" x="187" y="348"/><use href="#g39" x="718" y="348"/><use href="#g12" x="727" y="348"/><use href="#g14" x="736" y="348"/><use href="#g8" x="745" y="348"/><use href="#g16" x="754" y="348"/><use href="#g75" x="763" y="348"/><use href="#g69" x="43" y="368"/><use href="#g47" x="52" y="368"/><use href="#g48" x="61" y="368"/><use href="#g61" x="88" y="368"/><use href="#g12" x="97" y="368"/><use href="#g59" x="106" y="368"/><use href="#g13" x="115" y="368"/><use href="#g11" x="133" y="368"/><use href="#g16" x="142" y="368"/><use href="#g12" x="151" y="368"/><use href="#g11" x="160" y="368"/><use href="#g88" x="718" y="368"/><use href="#g18" x="727" y="368"/><use href="#g6" x="736" y="368"/><use href="#g89" x="745" y="368"/><use href="#g69" x="43" y="388"/><use href="#g47" x="52" y="388"/><use href="#g44" x="61" y="388"/><use href="#g58" x="88" y="388"/><use href="#g8" x="97" y="388"/><use href="#g16" x="106" y="388"/><use href="#g14" x="115" y="388"/><use href="#g11" x="133" y="388"/><use href="#g21" x="142" y="388"/><use href="#g17" x="151" y="388"/><use href="#g50" x="169" y="388"/><use href="#g18" x="178" y="388"/><use href="#g12" x="187" y="388"/><use href="#g20" x="196" y="388"/><use href="#g17" x="205" y="388"/><use href="#g42" x="718" y="388"/><use href="#g9" x="727" y="388"/><use href="#g11" x="736" y="388"/><use href="#g27" x="745" y="388"/><use href="#g69" x="43" y="408"/><use href="#g47" x="52" y="408"/><use href="#g55" x="61" y="408"/><use href="#g92" x="88" y="408"/><use href="#g18" x="97" y="408"/><use href="#g93" x="106" y="408"/><use href="#g11" x="115" y="408"/><use href="#g16" x="124" y="408"/><use href="#g17" x="133" y="408"/><use href="#g69" x="43" y="428"/><use href="#g47" x="52" y="428"/><use href="#g46" x="61" y="428"/><use href="#g42" x="88" y="428"/><use href="#g12" x="97" y="428"/><use href="#g13" x="106" y="428"/><use href="#g13" x="115" y="428"/><use href="#g18" x="124" y="428"/><use href="#g21" x="133" y="428"/><use href="#g22" x="142" y="428"/><use href="#g6" x="151" y="428"/><use href="#g20" x="169" y="428"/><use href="#g18" x="178" y="428"/><use href="#g6" x="187" y="428"/><use href="#g13" x="196" y="428"/><use href="#g21" x="376" y="428"/><use href="#g8" x="385" y="428"/><use href="#g9" x="394" y="428"/><use href="#g64" x="403" y="428"/><use href="#g81" x="421" y="428"/><use href="#g11" x="430" y="428"/><use href="#g21" x="439" y="428"/><use href="#g17" x="448" y="428"/><use href="#g11" x="466" y="428"/><use href="#g13" x="475" y="428"/><use href="#g13" x="493" y="428"/><use href="#g7" x="502" y="428"/><use href="#g12" x="511" y="428"/><use href="#g74" x="529" y="428"/><use href="#g80" x="538" y="428"/><use href="#g94" x="547" y="428"/><use href="#g20" x="565" y="428"/><use href="#g18" x="574" y="428"/><use href="#g14" x="583" y="428"/><use href="#g18" x="592" y="428"/><use href="#g13" x="601" y="428"/><use href="#g69" x="43" y="448"/><use href="#g47" x="52" y="448"/><use href="#g69" x="61" y="448"/><use href="#g58" x="88" y="448"/><use href="#g18" x="97" y="448"/><use href="#g20" x="106" y="448"/><use href="#g12" x="115" y="448"/><use href="#g11" x="133" y="448"/><use href="#g21" x="142" y="448"/><use href="#g17" x="151" y="448"/><use href="#g50" x="169" y="448"/><use href="#g8" x="178" y="448"/><use href="#g20" x="187" y="448"/><use href="#g17" x="196" y="448"/><use href="#g12" x="205" y="448"/><use href="#g16" x="214" y="448"/><use href="#g27" x="232" y="448"/><use href="#g18" x="241" y="448"/><use href="#g95" x="250" y="448"/><use href="#g69" x="43" y="468"/><use href="#g47" x="52" y="468"/><use href="#g73" x="61" y="468"/><use href="#g88" x="88" y="468"/><use href="#g11" x="97" y="468"/><use href="#g13" x="106" y="468"/><use href="#g12" x="115" y="468"/><use href="#g27" x="133" y="468"/><use href="#g18" x="142" y="468"/><use href="#g10" x="151" y="468"/><use href="#g89" x="160" y="468"/><use href="#g12" x="169" y="468"/><use href="#g16" x="178" y="468"/><use href="#g69" x="43" y="488"/><use href="#g47" x="52" y="488"/><use href="#g74" x="61" y="488"/><use href="#g61" x="88" y="488"/><use href="#g18" x="97" y="488"/><use href="#g14" x="106" y="488"/><use href="#g12" x="115" y="488"/><use href="#g18" x="133" y="488"/><use href="#g21" x="142" y="488"/><use href="#g27" x="151" y="488"/><use href="#g23" x="160" y="488"/><use href="#g13" x="169" y="488"/><use href="#g69" x="43" y="508"/><use href="#g47" x="52" y="508"/><use href="#g78" x="61" y="508"/><use href="#g88" x="88" y="508"/><use href="#g23" x="97" y="508"/><use href="#g16" x="106" y="508"/><use href="#g11" x="115" y="508"/><use href="#g13" x="124" y="508"/><use href="#g18" x="133" y="508"/><use href="#g8" x="142" y="508"/><use href="#g21" x="151" y="508"/><use href="#g18" x="169" y="508"/><use href="#g21" x="178" y="508"/><use href="#g27" x="187" y="508"/><use href="#g23" x="196" y="508"/><use href="#g13" x="205" y="508"/><use href="#g11" x="340" y="528"/><use href="#g27" x="349" y="528"/><use href="#g18" x="358" y="528"/><use href="#g66" x="367" y="528"/><use href="#g22" x="376" y="528"/><use href="#g11" x="385" y="528"/><use href="#g13" x="394" y="528"/><use href="#g12" x="403" y="528"/><use href="#g9" x="412" y="528"/><use href="#g11" x="421" y="528"/><use href="#g75" x="430" y="528"/><use href="#g73" x="43" y="568"/><use href="#g47" x="52" y="568"/><use href="#g79" x="61" y="568"/><use href="#g39" x="88" y="568"/><use href="#g11" x="97" y="568"/><use href="#g16" x="106" y="568"/><use href="#g89" x="115" y="568"/><use href="#g17" x="124" y="568"/><use href="#g8" x="133" y="568"/><use href="#g9" x="142" y="568"/><use href="#g21" x="151" y="568"/><use href="#g27" x="340" y="568"/><use href="#g8" x="349" y="568"/><use href="#g6" x="358" y="568"/><use href="#g13" x="367" y="568"/><use href="#g22" x="376" y="568"/><use href="#g16" x="385" y="568"/><use href="#g12" x="394" y="568"/><use href="#g6" x="403" y="568"/><use href="#g66" x="412" y="568"/><use href="#g79" x="421" y="568"/><use href="#g69" x="430" y="568"/><use href="#g73" x="43" y="588"/><use href="#g47" x="52" y="588"/><use href="#g48" x="61" y="588"/><use href="#g49" x="88" y="588"/><use href="#g8" x="97" y="588"/><use href="#g17" x="106" y="588"/><use href="#g12" x="115" y="588"/><use href="#g57" x="133" y="588"/><use href="#g18" x="142" y="588"/><use href="#g12" x="151" y="588"/><use href="#g9" x="160" y="588"/><use href="#g73" x="43" y="608"/><use href="#g47" x="52" y="608"/><use href="#g44" x="61" y="608"/><use href="#g41" x="88" y="608"/><use href="#g8" x="97" y="608"/><use href="#g22" x="106" y="608"/><use href="#g57" x="124" y="608"/><use href="#g18" x="133" y="608"/><use href="#g12" x="142" y="608"/><use href="#g9" x="151" y="608"/><use href="#g16" x="340" y="608"/><use href="#g12" x="349" y="608"/><use href="#g17" x="358" y="608"/><use href="#g18" x="367" y="608"/><use href="#g6" x="376" y="608"/><use href="#g66" x="385" y="608"/><use href="#g10" x="394" y="608"/><use href="#g11" x="403" y="608"/><use href="#g10" x="412" y="608"/><use href="#g7" x="421" y="608"/><use href="#g12" x="430" y="608"/><use href="#g73" x="43" y="628"/><use href="#g47" x="52" y="628"/><use href="#g55" x="61" y="628"/><use href="#g61" x="88" y="628"/><use href="#g12" x="97" y="628"/><use href="#g16" x="106" y="628"/><use href="#g14" x="115" y="628"/><use href="#g18" x="124" y="628"/><use href="#g21" x="133" y="628"/><use href="#g11" x="142" y="628"/><use href="#g20" x="151" y="628"/><use href="#g24" x="745" y="628"/><use href="#g57" x="754" y="628"/><use href="#g12" x="763" y="628"/><use href="#g16" x="772" y="628"/><use href="#g75" x="781" y="628"/><use href="#g6" x="799" y="628"/><use href="#g12" x="808" y="628"/><use href="#g16" x="817" y="628"/><use href="#g57" x="826" y="628"/><use href="#g18" x="835" y="628"/><use href="#g10" x="844" y="628"/><use href="#g12" x="853" y="628"/><use href="#g18" x="871" y="628"/><use href="#g6" x="880" y="628"/><use href="#g9" x="898" y="628"/><use href="#g18" x="907" y="628"/><use href="#g13" x="916" y="628"/><use href="#g7" x="925" y="628"/><use href="#g18" x="934" y="628"/><use href="#g21" x="943" y="628"/><use href="#g18" x="961" y="628"/><use href="#g13" x="970" y="628"/><use href="#g6" x="979" y="628"/><use href="#g18" x="340" y="648"/><use href="#g14" x="349" y="648"/><use href="#g11" x="358" y="648"/><use href="#g22" x="367" y="648"/><use href="#g12" x="376" y="648"/><use href="#g66" x="385" y="648"/><use href="#g16" x="394" y="648"/><use href="#g12" x="403" y="648"/><use href="#g6" x="412" y="648"/><use href="#g18" x="421" y="648"/><use href="#g93" x="430" y="648"/><use href="#g12" x="439" y="648"/><use href="#g16" x="448" y="648"/><use href="#g20" x="727" y="648"/><use href="#g18" x="736" y="648"/><use href="#g14" x="745" y="648"/><use href="#g18" x="754" y="648"/><use href="#g13" x="763" y="648"/><use href="#g6" x="772" y="648"/><use href="#g47" x="781" y="648"/><use href="#g15" x="799" y="648"/><use href="#g12" x="808" y="648"/><use href="#g9" x="817" y="648"/><use href="#g11" x="835" y="648"/><use href="#g20" x="844" y="648"/><use href="#g12" x="853" y="648"/><use href="#g16" x="862" y="648"/><use href="#g13" x="871" y="648"/><use href="#g6" x="880" y="648"/><use href="#g11" x="898" y="648"/><use href="#g27" x="907" y="648"/><use href="#g27" x="916" y="648"/><use href="#g12" x="925" y="648"/><use href="#g11" x="934" y="648"/><use href="#g16" x="943" y="648"/><use href="#g7" x="961" y="648"/><use href="#g12" x="970" y="648"/><use href="#g16" x="979" y="648"/><use href="#g12" x="988" y="648"/><use href="#g47" x="997" y="648"/><use href="#g74" x="43" y="688"/><use href="#g47" x="52" y="688"/><use href="#g79" x="61" y="688"/><use href="#g42" x="88" y="688"/><use href="#g12" x="97" y="688"/><use href="#g13" x="106" y="688"/><use href="#g23" x="115" y="688"/><use href="#g27" x="124" y="688"/><use href="#g9" x="142" y="688"/><use href="#g18" x="151" y="688"/><use href="#g93" x="160" y="688"/><use href="#g11" x="169" y="688"/><use href="#g16" x="178" y="688"/><use href="#g17" x="187" y="688"/><use href="#g9" x="340" y="688"/><use href="#g8" x="349" y="688"/><use href="#g16" x="358" y="688"/><use href="#g89" x="367" y="688"/><use href="#g12" x="376" y="688"/><use href="#g16" x="385" y="688"/><use href="#g74" x="43" y="708"/><use href="#g47" x="52" y="708"/><use href="#g48" x="61" y="708"/><use href="#g58" x="88" y="708"/><use href="#g18" x="97" y="708"/><use href="#g20" x="106" y="708"/><use href="#g12" x="115" y="708"/><use href="#g12" x="133" y="708"/><use href="#g59" x="142" y="708"/><use href="#g27" x="151" y="708"/><use href="#g20" x="160" y="708"/><use href="#g8" x="169" y="708"/><use href="#g16" x="178" y="708"/><use href="#g12" x="187" y="708"/><use href="#g16" x="196" y="708"/></g>
<g fill="#7ddc9b"><use href="#g76" x="349" y="248"/><use href="#g63" x="367" y="248"/><use href="#g12" x="376" y="248"/><use href="#g11" x="385" y="248"/><use href="#g20" x="394" y="248"/><use href="#g13" x="403" y="248"/><use href="#g7" x="412" y="248"/><use href="#g75" x="421" y="248"/><use href="#g82" x="898" y="348"/><use href="#g83" x="916" y="348"/><use href="#g29" x="925" y="348"/><use href="#g84" x="934" y="348"/><use href="#g35" x="952" y="348"/><use href="#g68" x="961" y="348"/><use href="#g28" x="979" y="348"/><use href="#g85" x="997" y="348"/><use href="#g86" x="1006" y="348"/><use href="#g87" x="1015" y="348"/><use href="#g82" x="979" y="368"/><use href="#g90" x="997" y="368"/><use href="#g51" x="1006" y="368"/><use href="#g91" x="1015" y="368"/><use href="#g82" x="979" y="388"/><use href="#g51" x="997" y="388"/><use href="#g77" x="1006" y="388"/><use href="#g91" x="1015" y="388"/></g>
<g fill="#f2777a"><use href="#g51" x="646" y="248"/><use href="#g82" x="601" y="648"/><use href="#g90" x="619" y="648"/><use href="#g77" x="628" y="648"/><use href="#g91" x="637" y="648"/></g>
</svg>
